<svg xmlns="http://www.w3.org/2000/svg" xmlns:xlink="http://www.w3.org/1999/xlink" width="668" height="756" viewBox="0 0 668 756">
    <defs>
        <path id="nk4npdsf7a" d="M0 756L668 756 668 0 0 0z"/>
    </defs>
    <g fill="none" fill-rule="evenodd">
        <g>
            <g transform="translate(74 -2289) translate(-74 2289)">
                <path fill="#AD2500" d="M73.541 680.182L51.194 668.57C36.985 645.818 25.967 619.104 25 590.235c0 0 21.054-1.328 44.906 2.325l15.047 17.948 1.2-14.67c11.683 2.996 23.063 7.484 32.082 14.175l1.63 29.326 9.311-18.362c1.766 2.48 3.275 5.157 4.483 8.046C152.252 673.495 166 731.028 166 731.028L119.782 743s-28.625-20.824-54.425-54.163l8.184-8.655z"/>
                <path fill="#A7CBD3" d="M111.999 724.044c12.643 2.647 20.665.625 23.49-.347-19.206-15.005-37.782-35.51-52.955-54.38-.683.209-1.363.4-2.04.576-12.609 3.25-23.845.485-32.355-3.505-.482-.792-.96-1.587-1.435-2.387 8.759 4.537 20.992 8.085 34.817 4.05-4.43-5.544-8.712-11.125-12.924-16.802-10.927 1.366-23.015-2.335-31.69-5.946-.313-.69-.623-1.382-.928-2.076 8.398 3.628 20.66 7.706 31.585 6.628-21.368-28.958-36.293-52.962-36.45-53.23L27 591.435l4.719 3.126c.274.465 12.475 19.894 29.597 43.99 2.478-12.894-7.72-40.212-10.601-47.551.553.039 1.112.079 1.675.124 3.377 8.625 13.606 36.487 10.09 49.058 10.866 15.195 24.036 32.35 38.334 48.283 2.376-6.856-13.848-43.067-6.886-60.8 4.247-10.82 2.392-21.66.217-28.626.585.2 1.171.405 1.752.614 2.097 7.214 3.625 17.884-.565 28.558-7.014 17.866 10.548 55.007 6.564 61.455 2.799 3.095 5.64 6.14 8.514 9.11 2.072-36.858 1.615-38.032-3.35-51.15-2.855-7.546-5.553-14.672-1.688-21.194 3.354-5.66 2.546-14.952 1.1-22.285.585.293 1.163.593 1.736.899 1.34 7.367 1.89 16.36-1.537 22.149-6.157 10.387 6.25 22.886 6.296 38.472.04 14.11-.96 31.684-1.131 34.577 5.88 6.01 11.894 11.7 17.965 16.872 1.437-2.018 7.194-11.521.924-26.774-5.09-12.385 2.74-31.845 8.364-43.184.249.668.494 1.34.739 2.012-5.423 11.286-12.336 29.339-7.707 40.6 6.693 16.285.388 26.235-1.165 28.324 7.314 6.144 14.706 11.518 22.044 15.775l-2.055.53c-1.295-.775-2.592-1.582-3.888-2.422-5.247 3.257-14.333 4.59-24.787.36-6.338-2.565-12.173-1.61-16.748.292-.41-.353-.829-.717-1.255-1.09 4.962-2.217 11.457-3.473 18.573-.594 11.89 4.811 20.104 1.525 22.799.102-2.924-1.943-5.844-4.041-8.75-6.267-7.06 2.973-17.486 2.35-25.204.733-4.977-1.041-9.7-.697-13.843.27-.434-.4-.87-.804-1.312-1.216 4.557-1.19 9.854-1.697 15.469-.523"/>
                <path fill="#195F6D" d="M124 628.705l3.967-7.705c1.776 2.458 3.293 5.107 4.507 7.969C151.174 673.016 165 730 165 730s-29.015-36.95-41-101.295"/>
                <path fill="#004A58" d="M307.967 655.387c-1.947.507-30.016-5.749-69.1 17.99C199.783 697.116 175 729 175 729s50.804-3.186 93.211-22.053c42.406-18.864 39.756-51.56 39.756-51.56"/>
                <path fill="#003842" d="M179.073 724.283C201.862 697.848 239.164 666.731 275 658c-2.048 23.309-8.171 41.483-25.815 56.265C219.407 724.315 189.673 727.951 179 729c-.004-1.458.018-3.035.073-4.717"/>
                <path fill="#E0AA1A" d="M130.764 541.884l23.054 14.386-17.424-37.985c3.717-12.83 8.4-25.065 14.017-36.062C165.91 451.866 195.816 405 195.816 405c13.921 16.122 24.786 32.452 33.093 48.762l-14.983 26.011 22.972-8.442c51.962 129.41-46.84 252.174-46.84 252.174L164.908 730s-39.398-106.092-38.903-141.874c.209-15.042 1.815-30.788 4.759-46.242"/>
                <path fill="#CFD5F1" d="M126.854 602.02c-.312-2.233-.555-4.355-.724-6.344 9.057 13.193 32.132 44.622 49.748 49.879.144-1.594.3-3.193.468-4.79-16.635-1.687-38.593-36.093-50.346-56.736.067-1.878.153-3.766.262-5.66 12.585 22.672 35.323 58.064 50.413 59.42 1.441-12.445 3.69-24.784 7.088-35.99 2.791-9.2 4.917-21.417 6.53-35.251-15.693-6.608-36.668-46.45-46.943-67.805.489-1.224.989-2.44 1.498-3.643 9.502 19.943 30.922 61.012 45.798 68.317 1.109-10.169 1.957-21.125 2.596-32.345-15.432-13.776-28.217-48.088-33.748-64.74.666-1.188 1.339-2.38 2.02-3.577 4.735 14.534 17.17 49.361 31.945 64.365 2.954-56.171 1.89-116.891 1.86-117.823l.574-2.297.55 2.192c.036 1.046 3.496 77.392-1.3 138.228 23.527 1.608 43.343-19.74 53.508-33.381.243 1.38.472 2.757.686 4.133-2.58 3.323-5.653 6.965-9.164 10.586-10.407 10.726-21.244 17.6-31.95 20.363-4.477 1.155-8.932 1.592-13.324 1.291-1.377 16.47-3.314 31.637-6.01 43.629 21.267 1.743 47.701-13.123 62.111-22.557-.115 1.3-.237 2.596-.371 3.887-10.494 6.748-26.109 15.486-41.86 19.55-6.976 1.801-13.98 2.685-20.575 2.072-.493 1.995-1.009 3.888-1.549 5.672-14.632 48.252-7.693 118.11-7.006 124.575l-2.947.76c-.204-1.839-4.281-39.62-1.074-79.397-16.978-4.613-37.953-31.347-48.764-46.584"/>
                <path fill="#6670A4" d="M191.049 724.911L167.595 731s-7.469-51.886 30.512-97.569l7.87 7.376-2.538-13.416c2.262-2.419 4.663-4.813 7.21-7.173l11.673 15.205-2.528-23.012C228.16 605.828 237.828 599.62 249 594c-13.487 74.193-56.336 128.873-57.951 130.911"/>
                <path fill="#469AA8" d="M67.015 662.373l10.526 20.437 1.916-17.096c7.173 2.22 14.353 4.982 21.31 8.407l4.533 10.338 4.793-5.248c19.027 11.503 35.414 28.796 43.907 54.691l-15.034 7.597c-.488.126-18.889 2.974-24.79 2.433-8.828-.812-90.538-6.148-114.176-86.184 0 0 31.77-3.495 67.015 4.625"/>
                <path fill="#A7CBD3" d="M139 737.665L137.464 741c-52.3-12.96-127.93-76.223-131.023-78.938L2 658l6.442 1.804c.781.685 78.674 68.623 130.558 77.861"/>
                <path fill="#E0AA1A" d="M200.642 645.244l6.738 6.258-2.174-11.383c1.939-2.053 3.994-4.086 6.174-6.087l9.993 12.902-2.161-19.527c11.33-8.841 25.46-16.888 43.067-23.407 0 0 9.733 53.677-7.615 82.882-17.35 29.206-54.861 34.608-54.861 34.608L174.508 728s-6.385-43.992 26.134-82.756"/>
                <path fill="#F3DDA3" d="M196.847 723.007L193 724c46.154-53.033 66.296-115.863 66.498-116.5L262 605l-.332 3.175c-.2.633-19.855 61.969-64.821 114.832"/>
                <path fill="#AD2500" d="M174 727.611s20.847-58.736 49.225-83.975C251.605 618.398 309 619.001 309 619.001s-5.33 12.032-14.45 28.005l-21.33 3.036 14.977 7.663c-14.975 24.256-36.77 52.862-61.14 63.46C181.609 740.93 174 727.611 174 727.611"/>
                <path fill="#DE9C8C" d="M174 728c.006-.017.264-.758 1.123-3.044 7.294-8.722 31.046-36.592 53.811-58.917.685-6.697-4.334-14.514-8.57-19.8.627-.622 1.256-1.224 1.89-1.81 3.995 4.953 8.733 12.18 9.269 19.092 1.063-1.024 8.802-7.971 11.62-10.17.94-6.84-4.146-13.36-8.777-17.756.788-.454 1.587-.895 2.395-1.326 4.361 4.275 8.917 10.321 9.071 17.03 2.772-2.06 5.572-3.998 8.366-5.808 4.133-6.077 2.679-13.493.707-18.68.837-.263 1.675-.518 2.514-.764 1.748 4.625 3.073 10.879.98 16.808 2.502-1.52 4.982-2.943 7.417-4.269 4.594-8.631 4.866-13.373 4.427-15.71.857-.177 1.709-.346 2.554-.505.493 2.633.2 7.061-3.073 14.144 17.494-9.014 31.637-13.92 31.872-13.984L307 621l-5.18 4.554c-.361.1-33.59 9.893-61.043 33.027 11.917-1.645 26.098 6.336 34.289 10.946 1.362.766 2.825 1.587 3.978 2.18-.493.715-.989 1.429-1.49 2.142-.997-.52-2.221-1.205-3.756-2.07-9.104-5.122-25.943-14.597-37.482-9.259-1.397 1.295-8.23 7.975-9.862 9.614 11.758-1.186 31.832 8.506 41.983 13.927-.545.683-1.095 1.365-1.649 2.042-13.41-7.106-35.877-17.071-43.987-12.267C198.35 700.86 174 728 174 728"/>
                <path fill="#CEDEFF" d="M57 318.01c157.668-169.24 315.334 142.015 473-27.227v-52.855C372.334 389.018 214.668 59.612 57 210.7v107.31z"/>
                <path fill="#9173F1" d="M230 210.209c47.333 20.414 94.667 52.328 142 69.791v-6.671c-47.333-17.976-94.667-50.402-142-71.329v8.209zM230 224.231c38 15.663 76 38.743 114 55.769v-5.29c-38-17.341-76-40.734-114-56.71v6.231z"/>
                <path fill="#FFF" d="M168 261.246c15.333.506 30.667 3.381 46 7.754v-78.585c-15.333-5.924-30.667-10.356-46-12.415v83.246z"/>
                <path fill="#9173F1" d="M230 242.346c16.333 6.23 32.667 13.792 49 21.654v-5.938c-16.333-7.998-32.667-15.697-49-22.062v6.346z"/>
                <path fill="#A98FFF" d="M174 250.618c10 .903 20 2.78 30 5.382v-60.299c-10-3.375-20-6.024-30-7.701v62.618z"/>
                <path fill="#FFF" d="M385 335.685c15.333 3.41 30.667 5.04 46 4.009v-56.987c-15.333-.535-30.667-3.732-46-8.707v61.685z"/>
                <path fill="#A98FFF" d="M392 328.62c9.999 2.022 20 3.23 30 3.38v-43.315c-10-.918-20.001-2.895-30-5.685v45.62zM62 229c31.667-29.084 63.333-39.04 95-37.766v-9.061c-31.667-1.621-63.333 7.99-95 36.725V229z"/>
                <path fill="#A98FFF" d="M64 245c31.667-28.358 63.333-38.096 95-36.976v-8.879c-31.667-1.462-63.333 7.937-95 35.952V245z"/>
                <path fill="#CDBDFF" d="M438 319c4.13-5.598 8.259-11.282 12.39-17.064-1.283.2-2.566.38-3.848.54-3.823.485-6.923-1.773-6.923-4.786v-5.946c0-3.021 3.1-5.55 6.923-5.903 22.178-2.076 44.355-10.287 66.534-27.276 3.824-2.916 6.924-3.506 6.924-.938v5.077c0 2.559-3.1 7.41-6.924 10.457-10.571 8.422-21.142 14.85-31.713 19.57C466.908 304.022 452.454 312.535 438 319"/>
                <path fill="#A98FFF" d="M233 256.067c0 .005-1.848-3.36-5.5-4.71-3.256-1.203-5.5.768-5.5 3.966 0 3.716 3.06 9.06 11 15.677 7.94-.837 11-3.75 11-7.367 0-3.1-2.246-6.713-5.502-8.031-3.65-1.471-5.498.466-5.498.465"/>
                <path fill="#FD5E5A" d="M384.538 281.371s7.493-2.655 14.443 4.283c6.948 6.939 42.236 62.04 42.236 62.04s50.82-42.583 53.955-45.713c3.133-3.13 2.452-13.47 3.133-15.51.681-2.041 6.948-6.804 8.584-6.804 1.635 0-3.133 6.804-3.133 6.804s5.723-1.36 7.63-6.804c1.907-5.442.952-19.455 2.997-19.455 2.044 0 1.907 6.938 1.907 6.938s-.817-11.475 1.907-10.023c2.727 1.452 2.044 10.84 2.044 10.84s.818-7.755 2.59-7.755c1.77 0 .816 9.524.816 9.524s1.499-5.58 2.998-5.58-2.044 22.042-5.042 26.94c-2.998 4.898-20.164 16.19-20.164 16.19S452.118 373 443.942 373c-8.174 0-50.412-44.626-57.224-61.496-6.812-16.87-2.18-30.133-2.18-30.133"/>
                <path fill="#111F59" d="M516.335 288.978l-12.392-1.761c-1.188-.17-2.039-1.282-1.934-2.529l3.387-40.546c.11-1.335 1.268-2.301 2.54-2.12l16.121 2.293c1.271.18 2.14 1.436 1.904 2.752l-7.114 40.016c-.22 1.23-1.324 2.064-2.512 1.895"/>
                <path fill="#749CFE" d="M508.897 247L506 277.021 517.397 278 523 249.469z"/>
                <path fill="#235893" d="M493 737c0 10.492-80.812 19-180.5 19-99.686 0-180.5-8.508-180.5-19s80.814-19 180.5-19c99.688 0 180.5 8.508 180.5 19"/>
                <path fill="#0E1B29" d="M394.414 213s11.228 41.65 11.228 58.995 20.499 16.163 19.34 12.002c0 0 3.35 3.063 1.417 7.837-1.933 4.772-7.089 5.289-7.089 5.289s2.32 3.483.13 6.707c-2.192 3.226-7.604 8.643-16.369 4.902-8.764-3.741-23.071-29.787-23.071-29.787L394.414 213z"/>
                <path fill="#0E1B29" d="M370.179 204.066s18.223 2.554 21.177 20.485c2.954 17.93-4.627 52.41-15.067 60.542-10.44 8.132-13.97 33.48-22.884 39.432-8.915 5.954-28.57 5.599-25.13-11.832 0 0 8.837 3.925 13.322-6.47 0 0-14.946 5.845-18.901-8.282-3.954-14.128 10.227-12.608 10.227-12.608s-8.476 7.525.077 7.204c8.552-.319 14.728-6.71 16.576-16.068 1.845-9.357-13.205-6.084-8.37-22.996 4.835-16.912 22.998-51.183 28.973-49.407"/>
                <path fill="#FC7575" d="M256.175 693C255.1 694.03 244 724.27 244 724.27l20.41 1.73.015-12.218L268 695.749 256.175 693zM456 706.504L466.261 727 480 713.094 466.435 696z"/>
                <path fill="#45156E" d="M385 444.401s-39.744 79.674-48.779 105.234c-9.036 25.56-11.192 31.575-29.263 60.922C288.886 639.903 266.217 706 266.217 706H247s17.084-114.645 41.179-137.367C312.273 545.915 334.688 429 334.688 429l44.556 5.477L385 444.4z"/>
                <path fill="#9070A9" d="M351.02 409S328 432.362 328 447.829c0 15.467 74.566 113.128 74.566 125.865 0 12.735 6.57 46.96 14.781 63.334C425.557 653.405 456.93 718 456.93 718L476 701.217s-36.49-92.388-36.49-111.493c0-19.106-12.127-49.986-22.163-70.91-10.035-20.925-37.643-89.802-37.643-89.802L351.02 409z"/>
                <path fill="#FAC338" d="M376.84 279.805s-24.239-3.485-28.654 6.24c-5.014 11.04 4.731 28.411 6.98 47.397 4.227 35.71 2.613 60.46-6.98 68.862C334.142 414.599 320 441.827 320 441.827s49.813 12.553 79.406 8.29c0 0-3.466-24.715-.931-46.122C401.805 375.85 414 345.514 414 334.918c0-18.654-4.517-21.41-21.214-53.154-2.486-4.726-15.946-1.959-15.946-1.959"/>
                <path fill="#FFF7CF" d="M398.91 450c-13.296-71.766 20.161-96.823 12.006-128.665-2.484-9.306-11.21-22.864-18.916-39.335 27.585 43.095 28.505 42.195 17.2 82.222-9.892 33.774-12.753 49.535-10.29 85.778"/>
                <path fill="#A67076" d="M357.656 398.498c0-8.267 18.854-4.146 7.95-14.98-10.906-10.834 2.679-39.783 2.679-54.688 0-14.903-20.389-43.83-20.389-43.83l-2.78 9.497c.082 10.66 6.69 24.704 8.502 39.767 4.281 35.632 2.647 60.328-7.07 68.711C332.326 415.244 318 442.412 318 442.412s20.035 4.973 42.353 7.588c5.966-18.62-2.697-43.742-2.697-51.502"/>
                <path fill="#FC7575" d="M399.088 247.792s-9.03 37.472-6.556 39.976C395.327 290.595 400 302 400 302s-20.942-14.269-24-23.725L380.524 241l18.564 6.792z"/>
                <path fill="#FD5E5A" d="M380.905 241L400 247.81s-.49 2.03-1.213 5.19c-6.337-.473-16.115-1.689-18.787-4.732l.905-7.268z"/>
                <path fill="#0E1B29" d="M379 213l27.752 9s5.22-.908 4.087-6.751c-1.134-5.844-8.625-10.307-15.77-12.361-7.144-2.055-15.572-1.885-15.572-1.885L379 213.001z"/>
                <path fill="#000" d="M360.28 429.369c-1.03.43-2.218-.056-2.649-1.09-.43-1.03.056-2.216 1.09-2.648 1.031-.43 2.219.058 2.65 1.09.43 1.03-.057 2.218-1.09 2.648m1.525-2.832c-.53-1.273-1.994-1.875-3.267-1.344-1.275.532-1.878 1.997-1.345 3.27.532 1.273 1.995 1.875 3.27 1.344 1.273-.532 1.874-1.996 1.342-3.27"/>
                <path fill="#853846" d="M293.518 464.747c-3.582 41.362 32.26 66.475 49.14 46.255 13.756-15.523 18.311-40.568 19.043-61.625.252-6.173.653-14.989-2.668-20.547l1.423-1.83c3.848 5.943 3.66 16.337 3.453 22.51-.599 21.618-5.117 47.152-19.271 63.362-18.541 22.405-57.92-4.03-54.42-48.49l3.3.365z"/>
                <path fill="#000" d="M351.19 462L344 459.257 358 430z"/>
                <path fill="#B14A5D" d="M285.654 411C283.207 414.008 267 457.675 267 457.675s54.568 20.17 74.543 22.325L359 429.38 285.654 411z"/>
                <path fill="#D38792" d="M272 455s11.835-31.65 16.749-36L326 426.744l-36.558-6.054S283.085 427.634 272 455"/>
                <path fill="#FC7575" d="M369.978 304.747c-.485-8.222-3.51-13.345-6.843-16.519-4.986-4.75-13.017-4.137-17.543 1.046-15.893 18.2-45.177 71.743-46.48 84.487-1.578 15.42 14.06 72.457 10.902 79.195-3.156 6.736-2.003 21.714.148 21.714 2.154 0 7.024 1.19 9.033 1.19 2.008 0 4.646 2.134 6.153.562.282-.295-.064-2.5-.036-3.82 2.624 1.186 5.076 4.588 5.974 3.696 1.47-1.462-.52-2.664-2.607-6.276-2.086-3.61-4.452-14.676-4.452-14.676-.557-5.236-5.08-77.043-1.268-88.692 4.017-12.274 48.167-42.445 47.019-61.907M386.123 204.003s10.017-.247 13.52 3.902c3.504 4.149 6.367 15.132 9.476 17.247 3.11 2.116 5.488 2.847 5.488 2.847s.924.478-1.422 2.31c-2.344 1.83-1.298 3.125.316 2.806 1.616-.322 2.06 2.808.89 3.413 0 0 1.1.756 1.105 2.37.006 1.613-1.188 2.022-1.188 2.022s-.08 2.353 1.117 4.101c1.198 1.75 1.758 6.974-11.418 6.979 0 0-19.724-.746-21.888-5.908-2.163-5.16-14.34-23.06-8.592-31.71 5.748-8.65 12.596-10.38 12.596-10.38"/>
                <path fill="#1B3753" d="M378.36 200.008c1.664-.326 14.68 8.898 13.573 18.414-1.108 9.516-8.674 6.85-12.494 10.08-3.82 3.23 3.454 13.27 3.556 17.897.102 4.63-6.921 32.601-6.921 32.601s-20.693-52.15-16.517-63.384c4.174-11.235 18.802-15.608 18.802-15.608"/>
                <path fill="#FC7575" d="M380.596 229.068s-4.872-6.595-6.153-4.739c-1.28 1.859.075 12.71 5.9 12.671 5.827-.037.253-7.932.253-7.932"/>
                <path fill="#1B3753" d="M382.771 246.357s3.709 62.271-18.743 65.372c-22.452 3.1-17.716-21.292-13.45-25.5 0 0 1.372 7.59 5.987 6.072 4.614-1.519 3.453-.305.383-10.018-3.07-9.714 6.158-6.955 11.387-15.924 5.23-8.969-8.005-15.419-7.69-23.236.314-7.817-1.964-19.123-1.964-19.123l24.09 22.357zM407 224c0 1.106-.448 2-1 2s-1-.894-1-2c0-1.104.448-2 1-2s1 .896 1 2"/>
                <path fill="#E9BBBD" d="M521 706.72s-24.147 21.69-29.148 23.305c-5.003 1.613-8.396 8.425-13.04 10.754-4.644 2.33-14.812-14.551-14.812-14.551l15.545-17.004s3.555 1.588 16.593-1.46c13.04-3.048 23.825-6.152 24.862-1.044M266.345 718.12s2.273 1.957 5.85 5.541c4.242 4.254 25.202 17.089 22.579 19.717-2.622 2.63-30.228 1.827-32.778-.729-2.55-2.556-9.76-5.695-15.15-5.695-5.39 0-6.846-4.822-6.846-10.224 0-5.405 7.72-13.73 7.72-13.73l18.625 5.12z"/>
                <path fill="#1B3753" d="M406.986 218s.532 3.971-4.986 8l4.986-8z"/>
                <path fill="#FD5E5A" d="M394.023 233.127c.26 1.535 2.699 2.275 5.448 1.652 2.748-.622 4.766-2.37 4.506-3.906-.26-1.535-2.699-2.275-5.448-1.652-2.748.622-4.766 2.372-4.506 3.906"/>
                <path fill="#1B3753" d="M404 218.614s-2.731-.869-4.629-.54c-1.898.33-3.498 1.312-3.363 1.926 0 0 1.886-1.232 3.58-1.292 1.691-.06 2.705.927 3.363.812.656-.113 1.049-.906 1.049-.906M376.048 200.86s2.998-2.667 15.798-1.614C404.644 200.301 410 212 410 212s-8.84-3.659-13.75-2.719-16.382 1.244-18.538-.172c-2.156-1.416-1.664-8.25-1.664-8.25"/>
                <path fill="#B880A7" d="M257.416 737.63c-4.61-4.586-15.364-5.553-15.47-5.562-1.39-.117-1.178-2.208.176-2.06.473.038 11.617 1.037 16.763 6.159 4.669 4.643 26.348 5.78 28.341 4 1.027-.915 2.39.55 1.47 1.465-2.805 2.791-26.01 1.24-31.28-4.002M477.052 737c-.191 0-.383-.05-.556-.157-.493-.302-.644-.938-.336-1.424.208-.33 5.211-8.114 13.387-10.613 7.72-2.362 23.04-14.944 24.5-17.309.303-.487.946-.644 1.446-.346.498.296.656.933.354 1.421-1.822 2.947-17.768 15.791-25.675 18.209-7.414 2.267-12.18 9.657-12.227 9.733-.199.314-.541.486-.893.486"/>
                <mask id="2e6vp85gib" fill="#fff">
                    <use xlink:href="#nk4npdsf7a"/>
                </mask>
                <path fill="#95B3FF" d="M512 211L579 211 579 169 512 169z" mask="url(#2e6vp85gib)"/>
                <path fill="#FFF" d="M573 172L520 172 546.057 197z" mask="url(#2e6vp85gib)"/>
                <path fill="#FFF" d="M545.975 202.018L516 174 516 206 576 206 576 174.877z" mask="url(#2e6vp85gib)"/>
                <path fill="#95B3FF" d="M495.807 105.791c57.575 18.792 82.471 52.174 49.377 135.414-3.477 8.731-7.343 17.312-11.815 25.568-.272.5-1.023.089-.752-.412 17.241-40.93 41.293-99.385 10.468-131.473-26.436-27.604-80.15-34.181-75.028-33.394-.68-.106-1.147-.745-1.042-1.43.103-.685.739-1.155 1.419-1.05 6.485.999 17.138 3.442 27.373 6.777" mask="url(#2e6vp85gib)"/>
                <path fill="#95B3FF" d="M622.056 139.22c2.627 11.863 2.285 19.6.781 27.083-.424 2.094-1.856 6.084-1.842 6.043-12.347 33.452-59.482 75.862-87.345 97.569-.175.138-.428.105-.563-.073-.241-.313.098-.613.075-.572 23.432-18.495 47.045-41.335 59.721-56.336 13.164-15.043 20.206-27.682 19.457-26.43 10.294-17.517 17.117-35.486-3.564-77.532-14.8-29.905-36.12-55.332-35.788-54.927-.435-.532-.361-1.32.165-1.758.528-.44 1.31-.366 1.745.165 18.279 22.269 40.663 58.219 47.158 86.767M437 76L485 76 485 46 437 46z" mask="url(#2e6vp85gib)"/>
                <path fill="#FFF" d="M481 48L443 48 461.682 66z" mask="url(#2e6vp85gib)"/>
                <path fill="#FFF" d="M461.482 71.014L440 50 440 74 483 74 483 50.657z" mask="url(#2e6vp85gib)"/>
                <path fill="#95B3FF" d="M379 130L446 130 446 88 379 88z" mask="url(#2e6vp85gib)"/>
                <path fill="#FFF" d="M439 91L386 91 412.057 116z" mask="url(#2e6vp85gib)"/>
                <path fill="#FFF" d="M412.975 122.018L383 94 383 126 443 126 443 94.877z" mask="url(#2e6vp85gib)"/>
                <path fill="#95B3FF" d="M507 138L574 138 574 96 507 96z" mask="url(#2e6vp85gib)"/>
                <path fill="#FFF" d="M567 100L514 100 540.057 125z" mask="url(#2e6vp85gib)"/>
                <path fill="#FFF" d="M540.975 131.018L511 103 511 135 571 135 571 103.877z" mask="url(#2e6vp85gib)"/>
                <path fill="#95B3FF" d="M289 173L356 173 356 131 289 131z" mask="url(#2e6vp85gib)"/>
                <path fill="#FFF" d="M350 135L297 135 323.057 160z" mask="url(#2e6vp85gib)"/>
                <path fill="#FFF" d="M321.975 166.018L292 138 292 170 352 170 352 138.877z" mask="url(#2e6vp85gib)"/>
                <path fill="#95B3FF" d="M225 232L292 232 292 190 225 190z" mask="url(#2e6vp85gib)"/>
                <path fill="#FFF" d="M286 193L233 193 259.057 218z" mask="url(#2e6vp85gib)"/>
                <path fill="#FFF" d="M258.975 224.018L229 196 229 228 289 228 289 196.877z" mask="url(#2e6vp85gib)"/>
                <path fill="#95B3FF" d="M228 121L275 121 275 92 228 92z" mask="url(#2e6vp85gib)"/>
                <path fill="#FFF" d="M271 94L234 94 252.191 111z" mask="url(#2e6vp85gib)"/>
                <path fill="#FFF" d="M251.982 116.138L231 96 231 119 273 119 273 96.631z" mask="url(#2e6vp85gib)"/>
                <path fill="#95B3FF" d="M153 281L200 281 200 252 153 252z" mask="url(#2e6vp85gib)"/>
                <path fill="#FFF" d="M195 254L158 254 176.191 271z" mask="url(#2e6vp85gib)"/>
                <path fill="#FFF" d="M175.983 275.138L155 255 155 278 197 278 197 255.63z" mask="url(#2e6vp85gib)"/>
                <path fill="#95B3FF" d="M45 357L92 357 92 328 45 328z" mask="url(#2e6vp85gib)"/>
                <path fill="#FFF" d="M88 331L51 331 69.191 348z" mask="url(#2e6vp85gib)"/>
                <path fill="#FFF" d="M68.983 353.138L48 333 48 356 90 356 90 333.63z" mask="url(#2e6vp85gib)"/>
                <path fill="#95B3FF" d="M555 106L631 106 631 58 555 58z" mask="url(#2e6vp85gib)"/>
                <path fill="#FFF" d="M624 63L565 63 594.005 90z" mask="url(#2e6vp85gib)"/>
                <path fill="#FFF" d="M593.972 97.396L560 65 560 102 628 102 628 66.016z" mask="url(#2e6vp85gib)"/>
                <path fill="#95B3FF" d="M536 48L612 48 612 0 536 0z" mask="url(#2e6vp85gib)"/>
                <path fill="#FFF" d="M605 5L546 5 575.007 32z" mask="url(#2e6vp85gib)"/>
                <path fill="#FFF" d="M574.973 38.396L541 6 541 43 609 43 609 7.016z" mask="url(#2e6vp85gib)"/>
                <path fill="#95B3FF" d="M526 263L591 263 591 222 526 222z" mask="url(#2e6vp85gib)"/>
                <path fill="#FFF" d="M583 226L533 226 557.581 250z" mask="url(#2e6vp85gib)"/>
                <path fill="#FFF" d="M558.476 255.143L530 228 530 259 587 259 587 228.851z" mask="url(#2e6vp85gib)"/>
                <path fill="#95B3FF" d="M603 127L668 127 668 86 603 86z" mask="url(#2e6vp85gib)"/>
                <path fill="#FFF" d="M660 89L610 89 634.582 113z" mask="url(#2e6vp85gib)"/>
                <path fill="#FFF" d="M635.476 118.142L607 91 607 122 664 122 664 91.85z" mask="url(#2e6vp85gib)"/>
                <path fill="#95B3FF" d="M583 193L648 193 648 152 583 152z" mask="url(#2e6vp85gib)"/>
                <path fill="#FFF" d="M641 156L591 156 615.582 180z" mask="url(#2e6vp85gib)"/>
                <path fill="#FFF" d="M615.476 185.142L587 158 587 189 644 189 644 158.85z" mask="url(#2e6vp85gib)"/>
                <path fill="#95B3FF" d="M451 181L521 181 521 137 451 137z" mask="url(#2e6vp85gib)"/>
                <path fill="#FFF" d="M515 142L460 142 487.039 167z" mask="url(#2e6vp85gib)"/>
                <path fill="#FFF" d="M485.975 172.769L455 143 455 177 517 177 517 143.934z" mask="url(#2e6vp85gib)"/>
                <path fill="#FD5E5A" d="M380.5 230.051s-2.572-4.062-3.345-2.812c-.772 1.25 1.522 8.028 2.815 7.753 1.293-.275 1.247-2.769.53-4.94" mask="url(#2e6vp85gib)"/>
            </g>
        </g>
    </g>
</svg>
