<svg xmlns="http://www.w3.org/2000/svg" xmlns:xlink="http://www.w3.org/1999/xlink" width="786" height="806" viewBox="0 0 786 806">
    <defs>
        <path id="omd9wl4eaa" d="M0 0.461L685.656 0.461 685.656 53.153 0 53.153z"/>
        <path id="aodxb0gryc" d="M0 804.891L785.375 804.891 785.375 0.714 0 0.714z"/>
        <path id="81vnul80re" d="M143.857.194c-7.12 0-12.895 4.906-12.895 10.96v.775l-.026 47.823c-.423 5.726-6.023 10.258-12.868 10.258H39.663c-7.117 0-12.893-4.905-12.893-10.956v-47.9C26.77 5.1 20.998.193 13.878.193 6.756.194.982 5.1.982 11.154v76.64c0 6.05 5.774 10.956 12.896 10.956h198c7.12 0 12.895-4.905 12.895-10.956v-76.64c0-6.054-5.774-10.96-12.896-10.96h-68.02zM130.962 11.54v-.4.4z"/>
        <path id="53lay6qfnh" d="M0.294 0.579L44.702 74.667 44.702 69.075 3.368 0.579z"/>
        <linearGradient id="yd0f00qp5f" x1="-2.136%" x2="104.462%" y1="45.87%" y2="54.314%">
            <stop offset="0%" stop-color="#F47938"/>
            <stop offset="100%" stop-color="#FFFB4D"/>
        </linearGradient>
        <linearGradient id="jiuholt78i" x1="100.002%" x2=".001%" y1="50%" y2="50%">
            <stop offset="0%" stop-color="#A8A5DD"/>
            <stop offset="100%" stop-color="#BCB8F2"/>
        </linearGradient>
    </defs>
    <g fill="none" fill-rule="evenodd">
        <g>
            <g>
                <g transform="translate(193 -4376) translate(-193 4376)">
                    <path fill="#7FCDFF" d="M732.452 698.69c-2.756 0-4.99-2.237-4.99-4.996v-563.21L550.686 328.83c-1.831 2.06-4.994 2.247-7.045.404-2.056-1.837-2.237-4.994-.402-7.054L737.442 104.27v589.425c0 2.76-2.235 4.996-4.99 4.996"/>
                    <path fill="#AD2500" d="M193.244 717.151l-21.892-11.342c-13.92-22.22-24.714-48.312-25.66-76.503 0 0 20.627-1.298 43.991 2.269l14.741 17.527 1.178-14.326c11.442 2.927 22.59 7.308 31.428 13.844l1.595 28.642 9.122-17.932c1.731 2.422 3.208 5.034 4.391 7.856 18.213 43.434 31.683 99.623 31.683 99.623l-45.277 11.69s-28.042-20.338-53.317-52.896l8.017-8.452z"/>
                    <path fill="#A7CBD3" d="M232.492 760.069c12.38 2.593 20.234.612 23-.342-18.805-14.705-36.993-34.799-51.85-53.293-.67.205-1.337.393-1.997.565-12.347 3.188-23.35.475-31.681-3.435-.472-.776-.94-1.554-1.405-2.339 8.577 4.448 20.553 7.923 34.09 3.97-4.336-5.434-8.53-10.904-12.654-16.466-10.7 1.335-22.535-2.29-31.03-5.828-.306-.676-.61-1.355-.91-2.035 8.225 3.556 20.232 7.552 30.93 6.495-20.924-28.38-35.538-51.903-35.691-52.164l-4.029-5.088 4.62 3.063c.268.456 12.214 19.498 28.983 43.11 2.424-12.636-7.561-39.407-10.382-46.6.543.038 1.09.078 1.64.123 3.306 8.452 13.323 35.759 9.88 48.078 10.64 14.892 23.534 31.702 37.535 47.319 2.326-6.722-13.56-42.209-6.743-59.587 4.159-10.604 2.344-21.229.212-28.054.574.196 1.147.396 1.716.601 2.053 7.07 3.548 17.527-.554 27.986-6.866 17.51 10.33 53.91 6.428 60.23 2.74 3.033 5.522 6.016 8.337 8.929 2.028-36.123 1.58-37.273-3.281-50.13-2.795-7.396-5.437-14.378-1.652-20.77 3.283-5.548 2.493-14.654 1.077-21.84.572.287 1.14.58 1.7.88 1.312 7.22 1.85 16.034-1.506 21.707-6.028 10.18 6.12 22.43 6.164 37.704.04 13.828-.94 31.052-1.107 33.885 5.759 5.891 11.646 11.466 17.59 16.536 1.408-1.978 7.045-11.292.907-26.24-4.984-12.137 2.681-31.208 8.188-42.32.244.656.484 1.312.724 1.97-5.31 11.061-12.078 28.754-7.546 39.79 6.553 15.96.38 25.71-1.141 27.758 7.162 6.021 14.4 11.288 21.586 15.46l-2.012.52c-1.272-.76-2.54-1.551-3.809-2.374-5.137 3.192-14.034 4.498-24.27.353-6.206-2.514-11.92-1.579-16.398.286l-1.23-1.066c4.858-2.175 11.219-3.405 18.185-.585 11.643 4.716 19.688 1.495 22.323.102-2.861-1.904-5.72-3.96-8.565-6.143-6.912 2.913-17.122 2.302-24.679.72-4.873-1.02-9.498-.685-13.556.261-.423-.39-.85-.787-1.282-1.19 4.461-1.167 9.647-1.664 15.145-.512"/>
                    <path fill="#195F6D" d="M243.882 666.926l3.865-7.597c1.732 2.423 3.208 5.035 4.39 7.857 18.215 43.433 31.684 99.624 31.684 99.624s-28.264-36.436-39.939-99.884"/>
                    <path fill="#004A58" d="M423.37 692.897c-1.91.492-29.4-5.584-67.681 17.477-38.28 23.058-62.552 54.03-62.552 54.03s49.759-3.095 91.294-21.421 38.939-50.086 38.939-50.086"/>
                    <path fill="#003842" d="M297.217 759.75c22.403-25.711 59.072-55.977 94.299-64.47-2.012 22.673-8.03 40.349-25.377 54.727-29.271 9.775-58.505 13.31-68.996 14.33-.003-1.418.018-2.952.074-4.587"/>
                    <path fill="#E0AA1A" d="M250.337 582.339l22.608 14.107-17.086-37.247c3.645-12.583 8.238-24.58 13.746-35.365 15.2-29.769 44.529-75.727 44.529-75.727 13.65 15.81 24.307 31.824 32.452 47.817l-14.694 25.508 22.53-8.277c50.959 126.9-45.937 247.284-45.937 247.284l-24.664 6.37s-38.637-104.036-38.151-139.126c.205-14.749 1.781-30.19 4.667-45.344"/>
                    <path fill="#CFD5F1" d="M246.633 640.195c-.307-2.191-.545-4.272-.71-6.223 8.88 12.943 31.506 43.78 48.782 48.935.14-1.564.292-3.133.458-4.698-16.312-1.656-37.843-35.41-49.368-55.664.064-1.842.15-3.695.257-5.55 12.34 22.242 34.637 56.963 49.434 58.293 1.414-12.21 3.619-24.316 6.95-35.307 2.735-9.029 4.822-21.014 6.401-34.586-15.387-6.483-35.954-45.57-46.03-66.52.482-1.203.97-2.395 1.47-3.577 9.318 19.566 30.32 59.86 44.908 67.025 1.086-9.976 1.92-20.726 2.548-31.733-15.135-13.514-27.671-47.179-33.094-63.516.65-1.165 1.312-2.333 1.978-3.508 4.645 14.258 16.837 48.427 31.327 63.149 2.895-55.111 1.855-114.68 1.822-115.596l.563-2.254.54 2.15c.035 1.027 3.428 75.93-1.275 135.614 23.072 1.578 42.502-19.368 52.468-32.75.24 1.354.466 2.705.672 4.055-2.528 3.259-5.541 6.835-8.985 10.386-10.203 10.524-20.828 17.265-31.328 19.976-4.39 1.135-8.757 1.563-13.063 1.268-1.352 16.159-3.252 31.039-5.895 42.804 20.851 1.711 46.774-12.874 60.906-22.132-.114 1.278-.236 2.549-.366 3.815-10.29 6.62-25.603 15.193-41.045 19.181-6.84 1.766-13.711 2.633-20.177 2.033-.484 1.957-.99 3.815-1.517 5.563-14.35 47.34-7.546 115.876-6.874 122.22l-2.889.745c-.199-1.804-4.197-38.87-1.051-77.895-16.65-4.526-37.217-30.755-47.817-45.703"/>
                    <path fill="#6670A4" d="M308.544 760.424l-22.968 5.932s-7.314-50.527 29.88-95.007l7.705 7.18-2.487-13.064c2.217-2.356 4.567-4.686 7.062-6.984l11.432 14.807-2.475-22.41c8.19-6.41 17.656-12.457 28.598-17.927-13.206 72.246-55.167 125.49-56.747 127.473"/>
                    <path fill="#469AA8" d="M187.45 699.74l10.276 20.007 1.871-16.736c7.004 2.175 14.015 4.877 20.808 8.228l4.426 10.122 4.68-5.136c18.579 11.26 34.58 28.188 42.872 53.536l-38.123 9.846s-87.83-1.516-112.246-84.394c0 0 31.021-3.422 65.435 4.527"/>
                    <path fill="#A7CBD3" d="M257.703 773.553l-6.37 1.646c-51.088-12.689-120.092-73.01-123.115-75.669l-4.337-3.976 6.293 1.766c.763.67 76.849 67.189 127.53 76.233"/>
                    <path fill="#E0AA1A" d="M318.775 683.277l6.603 6.153-2.132-11.194c1.897-2.017 3.912-4.014 6.05-5.983l9.792 12.687-2.12-19.2c11.106-8.69 24.949-16.601 42.2-23.01 0 0 9.536 52.769-7.463 81.48-16.999 28.713-53.754 34.023-53.754 34.023l-24.785 6.4s-6.253-43.249 25.609-81.356"/>
                    <path fill="#F3DDA3" d="M315.183 758.949l-3.747.967c44.933-51.653 64.539-112.846 64.735-113.468l2.44-2.436-.327 3.093c-.192.618-19.325 60.357-63.101 111.844"/>
                    <path fill="#AD2500" d="M292.395 764.194s20.342-57.625 48.04-82.387c27.696-24.762 83.708-24.168 83.708-24.168s-5.202 11.804-14.104 27.476l-20.814 2.976 14.617 7.519c-14.617 23.796-35.886 51.862-59.67 62.26-44.352 19.392-51.777 6.324-51.777 6.324"/>
                    <path fill="#DE9C8C" d="M292.395 764.194c.007-.016.255-.74 1.098-2.97 7.12-8.512 30.314-35.708 52.548-57.492.666-6.536-4.234-14.163-8.37-19.322.61-.606 1.226-1.194 1.847-1.766 3.9 4.834 8.526 11.886 9.05 18.63 1.037-.999 8.595-7.778 11.345-9.924.92-6.674-4.046-13.038-8.57-17.326.769-.444 1.549-.873 2.338-1.294 4.26 4.172 8.71 10.073 8.861 16.62 2.706-2.014 5.44-3.901 8.17-5.67 4.036-5.93 2.614-13.166.687-18.226.818-.258 1.637-.507 2.458-.747 1.704 4.515 2.999 10.615.956 16.401 2.443-1.485 4.866-2.871 7.244-4.165 4.487-8.424 4.751-13.05 4.323-15.331.836-.172 1.67-.337 2.493-.494.483 2.571.196 6.893-3.001 13.805 17.084-8.798 30.895-13.583 31.123-13.647l5.279-1.496-5.06 4.447c-.353.096-32.8 9.652-59.61 32.229 11.639-1.607 25.486 6.182 33.486 10.68 1.33.746 2.756 1.55 3.883 2.127-.481.695-.963 1.392-1.452 2.09-.976-.508-2.173-1.176-3.672-2.02-8.889-4.998-25.334-14.244-36.6-9.035-1.365 1.264-8.038 7.782-9.633 9.38 11.483-1.155 31.085 8.302 40.998 13.593-.53.667-1.067 1.332-1.608 1.99-13.097-6.933-35.037-16.657-42.956-11.97-23.877 24.42-47.655 50.903-47.655 50.903"/>
                    <path fill="#FFF" d="M187.621 480.655c-25.316 0-45.91-20.611-45.91-45.947 0-25.336 20.594-45.949 45.91-45.949 25.314 0 45.91 20.613 45.91 45.95 0 25.335-20.596 45.946-45.91 45.946M732.452 163.326c-25.313 0-45.91-20.613-45.91-45.949s20.597-45.948 45.91-45.948c25.316 0 45.911 20.612 45.911 45.948 0 25.336-20.595 45.949-45.911 45.949"/>
                    <path fill="#99D7FF" d="M345.628 161.251c-.332 0-.67-.123-.97-.384-1.465-1.27-2.986-2.54-4.51-3.772-.847-.685-1.12-2.163-.61-3.302.51-1.139 1.61-1.506 2.456-.822 1.557 1.258 3.106 2.553 4.607 3.853.828.719 1.07 2.208.532 3.325-.34.713-.918 1.102-1.505 1.102M202.175 111.795h-.039c-3.43-.101-6.783-.155-9.972-.155h-.57c-.989 0-1.79-1.076-1.79-2.405 0-1.329.801-2.406 1.79-2.406h.57c3.215 0 6.597.052 10.05.155.99.03 1.772 1.13 1.752 2.457-.021 1.311-.82 2.354-1.79 2.354m-36.43 1.167c-.924 0-1.71-.956-1.784-2.215-.078-1.324.657-2.484 1.642-2.59 3.429-.37 7.005-.666 10.629-.88.97-.071 1.824.972 1.87 2.3.042 1.327-.724 2.45-1.712 2.508-3.583.211-7.115.503-10.499.868-.049.006-.099.009-.146.009m62.267.548c-.048 0-.095-.003-.145-.008-3.448-.37-6.986-.69-10.517-.949-.988-.073-1.744-1.206-1.69-2.535.052-1.325.873-2.31 1.885-2.271 3.562.262 7.132.584 10.608.96.987.106 1.723 1.264 1.642 2.59-.074 1.26-.859 2.213-1.783 2.213m25.692 3.992c-.09 0-.182-.009-.274-.028-3.426-.705-6.936-1.352-10.43-1.923-.98-.161-1.679-1.36-1.56-2.68.12-1.319 1.02-2.244 1.993-2.098 3.531.579 7.076 1.232 10.54 1.946.977.2 1.65 1.429 1.5 2.742-.137 1.19-.9 2.041-1.769 2.041m-113.587.069c-.84 0-1.589-.798-1.757-1.947-.19-1.303.444-2.567 1.415-2.822 3.408-.893 6.949-1.695 10.525-2.38.971-.182 1.888.726 2.027 2.042.138 1.316-.54 2.534-1.52 2.721-3.516.674-6.998 1.462-10.346 2.34-.115.03-.23.046-.344.046m138.96 6.626c-.143 0-.283-.022-.425-.067-3.343-1.09-6.795-2.123-10.262-3.074-.97-.267-1.595-1.537-1.4-2.838.2-1.305 1.145-2.145 2.116-1.879 3.51.963 7.004 2.01 10.39 3.113.961.313 1.55 1.615 1.32 2.906-.202 1.102-.934 1.839-1.74 1.839m-163.893 2.472c-.734 0-1.423-.61-1.685-1.593-.334-1.251.15-2.629 1.08-3.077 3.287-1.584 6.714-3.061 10.186-4.39.951-.363 1.944.376 2.214 1.655.272 1.277-.28 2.61-1.232 2.972-3.393 1.299-6.743 2.744-9.957 4.292-.2.096-.404.141-.606.141m188.678 7.39c-.198 0-.4-.044-.6-.14-3.255-1.55-6.61-3.036-9.971-4.413-.946-.389-1.477-1.733-1.188-3.004.29-1.271 1.288-1.99 2.236-1.6 3.408 1.401 6.813 2.908 10.121 4.482.933.445 1.42 1.821 1.091 3.071-.26.987-.951 1.604-1.689 1.604M91.78 141.306c-.613 0-1.21-.424-1.544-1.186-.504-1.145-.219-2.618.634-3.294 3.038-2.403 6.218-4.687 9.449-6.795.892-.578 1.962-.08 2.394 1.114.431 1.196.06 2.638-.83 3.216-3.145 2.05-6.238 4.275-9.195 6.612-.287.225-.6.333-.908.333m230.667 4.28c-.27 0-.54-.08-.798-.253-3.082-2.059-6.282-4.06-9.506-5.944-.908-.531-1.322-1.945-.929-3.164.394-1.22 1.45-1.777 2.356-1.249 3.284 1.917 6.539 3.952 9.674 6.049.886.592 1.247 2.037.805 3.226-.31.846-.945 1.335-1.602 1.335M70.982 161.838c-.487 0-.976-.265-1.328-.788-.663-.984-.607-2.507.124-3.4 2.644-3.22 5.416-6.322 8.24-9.22.787-.806 1.91-.604 2.511.45.6 1.055.45 2.565-.337 3.371-2.743 2.819-5.438 5.833-8.007 8.965-.344.416-.774.622-1.203.622m-17.617 25.395c-.39 0-.784-.171-1.114-.524-.774-.827-.903-2.341-.287-3.379 2.213-3.737 4.54-7.421 6.92-10.952.664-.99 1.8-1.06 2.53-.17.735.891.791 2.413.128 3.4-2.33 3.456-4.61 7.062-6.773 10.716-.354.598-.877.91-1.404.91m-14.494 28.732c-.302 0-.607-.101-.886-.315-.859-.658-1.16-2.128-.67-3.282 1.756-4.134 3.636-8.253 5.59-12.245.544-1.109 1.656-1.417 2.48-.69.826.73 1.056 2.224.513 3.332-1.912 3.908-3.752 7.941-5.472 11.987-.327.778-.934 1.213-1.555 1.213M27.838 247.35c-.21 0-.426-.05-.636-.157-.925-.474-1.39-1.862-1.037-3.105 1.257-4.446 2.644-8.906 4.118-13.255.41-1.208 1.472-1.742 2.373-1.192.901.55 1.297 1.975.888 3.187-1.442 4.255-2.8 8.62-4.03 12.971-.272.96-.954 1.55-1.676 1.55m-7.24 33.313c-.122 0-.243-.016-.365-.05-.97-.27-1.592-1.542-1.391-2.844.714-4.644 1.56-9.342 2.512-13.962.264-1.283 1.25-2.032 2.204-1.678.953.354 1.513 1.68 1.247 2.958-.93 4.521-1.757 9.117-2.457 13.657-.174 1.138-.92 1.919-1.75 1.919m-3.158 34.435l-.072-.001c-.987-.053-1.758-1.171-1.72-2.499.14-4.745.405-9.569.789-14.331.106-1.321.989-2.277 1.974-2.134.983.143 1.693 1.33 1.587 2.652-.376 4.653-.634 9.365-.77 14.002-.039 1.295-.832 2.311-1.788 2.311m1.157 34.665c-.886 0-1.655-.88-1.772-2.091-.108-1.09-.208-2.18-.302-3.277-.312-3.651-.554-7.364-.718-11.036-.059-1.326.692-2.467 1.68-2.547.976-.073 1.835.93 1.894 2.255.162 3.587.399 7.214.704 10.783.09 1.069.188 2.133.291 3.195.13 1.318-.56 2.525-1.54 2.7-.08.012-.16.018-.237.018m5.659 33.85c-.757 0-1.46-.649-1.706-1.668-1.09-4.547-2.065-9.207-2.901-13.855-.232-1.292.358-2.59 1.319-2.902.965-.311 1.931.48 2.163 1.773.815 4.53 1.767 9.075 2.829 13.508.303 1.267-.214 2.621-1.155 3.028-.184.078-.367.116-.55.116m10.111 31.928c-.64 0-1.258-.46-1.581-1.27-1.681-4.22-3.267-8.566-4.707-12.917-.404-1.215.003-2.637.906-3.177.903-.544 1.963.004 2.365 1.218 1.409 4.246 2.952 8.487 4.594 12.605.468 1.17.14 2.628-.733 3.256-.269.192-.559.285-.844.285m14.072 29.092c-.536 0-1.067-.322-1.417-.936-2.19-3.803-4.296-7.72-6.26-11.645-.552-1.104-.335-2.597.486-3.34.82-.738 1.935-.448 2.487.653 1.921 3.84 3.98 7.671 6.12 11.39.605 1.051.463 2.564-.323 3.373-.325.34-.71.505-1.093.505m17.29 25.773c-.446 0-.893-.223-1.24-.671-2.576-3.323-5.094-6.765-7.484-10.229-.673-.975-.63-2.498.097-3.398.722-.904 1.857-.85 2.53.129 2.345 3.394 4.812 6.77 7.339 10.027.713.922.736 2.445.051 3.402-.352.494-.822.74-1.292.74m19.757 22.364c-.37 0-.746-.154-1.066-.473-2.877-2.867-5.706-5.831-8.408-8.814-.763-.844-.874-2.362-.248-3.385.629-1.028 1.76-1.177 2.524-.333 2.655 2.933 5.435 5.847 8.265 8.666.794.793.962 2.3.373 3.367-.353.636-.892.972-1.44.972m22.028 18.257c-.287 0-.58-.093-.85-.289-3.846-2.79-6.986-5.107-9.33-6.887-.86-.653-1.164-2.121-.677-3.277.489-1.16 1.583-1.563 2.44-.911 2.325 1.764 5.441 4.067 9.27 6.84.87.632 1.195 2.091.724 3.262-.324.805-.94 1.262-1.577 1.262"/>
                    <g transform="translate(0 751.738)">
                        <mask id="so6bupgnpb" fill="#fff">
                            <use xlink:href="#omd9wl4eaa"/>
                        </mask>
                        <path fill="#F78500" d="M685.656 26.807c0 14.551-153.488 26.347-342.83 26.347C153.49 53.154 0 41.358 0 26.807 0 12.257 153.49.46 342.827.46c189.34 0 342.83 11.797 342.83 26.346" mask="url(#so6bupgnpb)"/>
                    </g>
                    <path fill="#FFF" d="M732.452 511.945c-25.316 0-45.91-20.613-45.91-45.949 0-25.335 20.594-45.948 45.91-45.948 25.316 0 45.911 20.613 45.911 45.948 0 25.336-20.595 45.95-45.911 45.95"/>
                    <path fill="#99D7FF" d="M772.769 465.997c0 22.285-18.05 40.35-40.317 40.35-22.266 0-40.318-18.065-40.318-40.35 0-22.287 18.052-40.351 40.318-40.351 22.268 0 40.317 18.064 40.317 40.35"/>
                    <path fill="#FFF" d="M732.452 457.258c-3.636 0-6.586-2.95-6.586-6.592 0-3.64 2.95-6.591 6.586-6.591 3.639 0 6.585 2.95 6.585 6.59 0 3.643-2.946 6.593-6.585 6.593m.217-17.142c-7.584 0-13.728 6.152-13.728 13.74s13.728 38.02 13.728 38.02 13.726-30.432 13.726-38.02c0-7.588-6.145-13.74-13.726-13.74M187.621 334.782c-25.316 0-45.91-20.613-45.91-45.949 0-25.334 20.594-45.948 45.91-45.948 25.314 0 45.91 20.614 45.91 45.948 0 25.336-20.596 45.95-45.91 45.95"/>
                    <path fill="#99D7FF" d="M227.938 289.867c0 22.287-18.05 40.351-40.316 40.351-22.268 0-40.319-18.064-40.319-40.35s18.051-40.352 40.319-40.352c22.265 0 40.316 18.066 40.316 40.351"/>
                    <path fill="#FFF" d="M165.07 269.655c1.77 3.863 11.237 23.754 20.47 28.298.38.187 9.824 1.461 10.21 1.645 10.32 4.91 10.995 4.732 10.995 5.627 0 .747.32 1.859-.687 2.158-1.809.539-7.763 1.693-24.367.952-.343-.015-.657-.214-.815-.521-7.668-14.945-16.1-20.159-16.1-16.839 0 17.184.409 17.601-.963 17.601-.684-.106-2.373.407-2.481-.882-.358-4.293-1.997-22.882-3.636-24.522-1.81-1.81-3.46-12.464 6.341-14.067.43-.072.853.153 1.034.55"/>
                    <path fill="#FFF" d="M172.947 298.816c.86 8.306.473 8.86 1.705 8.86.65-.112 2.484.431 2.484-.964v-1.519c-1.271-2.187-2.7-4.396-4.19-6.377M207.842 298.616c-10.194-1.57-9.698-1.443-9.94-1.561-9.235-4.545-18.7-24.437-20.471-28.3-.181-.395-.603-.62-1.032-.55-4.12.674-6.21 2.948-7.123 5.491 2.827 5.54 6.278 11.322 9.789 15.726 2.564 1.148 5.135 3.77 7.382 6.667 12.553 1.91 7.07.266 19.598 6.16 1.524.132 2.724 1.417 2.724 2.976-.044.981.121 1.516-.234 2.378 5.988-.203 8.75-.783 9.884-1.12 1.011-.302.7-1.492.688-2.158 0-1.036-11.001-5.67-11.265-5.709"/>
                    <path fill="#99D7FF" d="M772.769 117.377c0 22.285-18.05 40.351-40.317 40.351-22.266 0-40.318-18.066-40.318-40.35 0-22.287 18.052-40.351 40.318-40.351 22.268 0 40.317 18.064 40.317 40.35M227.938 433.897c0 22.287-18.05 40.351-40.316 40.351-22.268 0-40.319-18.064-40.319-40.35s18.051-40.352 40.319-40.352c22.265 0 40.316 18.066 40.316 40.351"/>
                    <path fill="#FFF" d="M187.673 431.047c-1.175-1.41-.983-3.507.425-4.682 1.41-1.176 3.505-.983 4.68.425 1.174 1.412.984 3.51-.427 4.683-1.41 1.176-3.504.986-4.678-.426m10.957-.401l-8.586-10.312c-2.087-2.507-5.811-2.847-8.318-.758l-27.221 22.701 16.143 19.395 27.225-22.7c2.505-2.09 2.845-5.817.757-8.326"/>
                    <path fill="#FFF" d="M191.505 427.019c.13-.026 13.054-2.518 17.876-6.541 4.174-3.48 4.472-10.493-3.32-9.663-6.104.651-11.206 9.883-13.116 13.822-.64 1.32-2.63.351-1.993-.967 2.574-5.306 7.927-14.32 14.874-15.059 9.741-1.037 11.096 8.465 4.974 13.57-5.266 4.39-18.329 6.91-18.882 7.015-1.439.272-1.853-1.902-.413-2.177M732.452 335.816c-25.313 0-45.91-20.611-45.91-45.949 0-25.334 20.597-45.948 45.91-45.948 25.316 0 45.911 20.614 45.911 45.948 0 25.338-20.595 45.949-45.911 45.949"/>
                    <path fill="#99D7FF" d="M772.769 289.867c0 22.287-18.05 40.351-40.317 40.351-22.266 0-40.318-18.064-40.318-40.35s18.052-40.352 40.318-40.352c22.268 0 40.317 18.066 40.317 40.351"/>
                    <path fill="#331579" d="M569.299 217.71H358.197c-28.59 0-51.765 23.195-51.765 51.81v444.196c0 28.615 23.175 51.81 51.765 51.81h211.102c28.587 0 51.762-23.195 51.762-51.81V269.519c0-28.614-23.175-51.809-51.762-51.809"/>
                    <path fill="#91AAFE" d="M358.197 751.49c-20.811 0-37.742-16.638-37.742-37.091V278.23c0-20.452 16.93-37.092 37.742-37.092h211.101c20.811 0 37.74 16.64 37.74 37.092v436.168c0 20.453-16.929 37.091-37.74 37.091H358.197z"/>
                    <path fill="#190B3D" d="M562.793 237.63H362.378c-4.52 0-8.183-3.664-8.183-8.186s3.663-8.186 8.183-8.186h200.415c4.52 0 8.18 3.664 8.18 8.186s-3.66 8.187-8.18 8.187"/>
                    <path fill="#331579" d="M565.203 229.59c0 3.675-2.976 6.653-6.645 6.653-3.672 0-6.647-2.978-6.647-6.654 0-3.673 2.975-6.651 6.647-6.651 3.67 0 6.645 2.978 6.645 6.651"/>
                    <path fill="#0E061E" d="M530.291 232.441H412.626c-1.573 0-2.848-1.277-2.848-2.852 0-1.573 1.275-2.85 2.848-2.85h117.665c1.574 0 2.848 1.277 2.848 2.85 0 1.575-1.274 2.852-2.848 2.852"/>
                    <mask id="xg1iguugrd" fill="#fff">
                        <use xlink:href="#aodxb0gryc"/>
                    </mask>
                    <path fill="#FFF" d="M342.826 644.069L584.996 644.069 584.996 287.925 342.826 287.925z" mask="url(#xg1iguugrd)"/>
                    <path fill="#FFF7CF" d="M450.609 448.744L570.973 448.744 570.973 303.128 450.609 303.128zM450.609 615.558L570.973 615.558 570.973 469.941 450.609 469.941zM360.041 327.691L436.585 327.691 436.585 313.071 360.041 313.071zM360.041 357.516L436.585 357.516 436.585 342.896 360.041 342.896zM360.041 387.341L436.585 387.341 436.585 372.721 360.041 372.721zM360.041 488.511L436.585 488.511 436.585 473.891 360.041 473.891zM360.041 518.336L436.585 518.336 436.585 503.716 360.041 503.716zM360.041 548.161L436.585 548.161 436.585 533.541 360.041 533.541z" mask="url(#xg1iguugrd)"/>
                    <path fill="#331579" d="M445.203 664.17c0 2.382-1.929 4.313-4.31 4.313-2.379 0-4.309-1.931-4.309-4.313 0-2.38 1.93-4.313 4.31-4.313s4.309 1.932 4.309 4.313M461.272 664.17c0 2.382-1.929 4.313-4.31 4.313-2.38 0-4.31-1.931-4.31-4.313 0-2.38 1.93-4.313 4.31-4.313 2.381 0 4.31 1.932 4.31 4.313M477.34 664.17c0 2.382-1.928 4.313-4.31 4.313-2.378 0-4.308-1.931-4.308-4.313 0-2.38 1.93-4.313 4.309-4.313 2.38 0 4.31 1.932 4.31 4.313M560.224 279.45c0 2.189 1.772 3.962 3.959 3.962 2.188 0 3.96-1.773 3.96-3.962 0-2.188-1.772-3.962-3.96-3.962-2.187 0-3.96 1.774-3.96 3.962" mask="url(#xg1iguugrd)"/>
                    <path fill="#270F5B" d="M562.04 279.45c0 1.183.961 2.145 2.143 2.145s2.143-.962 2.143-2.145-.96-2.143-2.143-2.143c-1.182 0-2.142.96-2.142 2.143" mask="url(#xg1iguugrd)"/>
                    <path fill="#331579" d="M543.005 279.45c0 2.189 1.773 3.962 3.959 3.962 2.188 0 3.96-1.773 3.96-3.962 0-2.188-1.772-3.962-3.96-3.962-2.186 0-3.959 1.774-3.959 3.962" mask="url(#xg1iguugrd)"/>
                    <path fill="#270F5B" d="M544.822 279.45c0 1.183.96 2.145 2.143 2.145 1.182 0 2.139-.962 2.139-2.145s-.957-2.143-2.14-2.143c-1.182 0-2.142.96-2.142 2.143" mask="url(#xg1iguugrd)"/>
                    <path fill="#331579" d="M544.508 268.962l-7.388-12.776c-.357-.611-.323-1.325.083-1.911.405-.586 1.114-.934 1.894-.934h29.344c.413 0 .748.295.748.658 0 .364-.335.659-.748.659h-29.344c-.369 0-.555.214-.62.305-.066.093-.196.337-.026.624l7.388 12.777c.124.215.37.349.646.349h19.198l4.86-17.08c.572-2.007 2.428-3.41 4.511-3.41h5.414c.413 0 .747.334.747.747s-.334.748-.747.748h-5.414c-1.42 0-2.686.955-3.074 2.323l-6.362 22.35h-20.83c-.417 0-.749-.335-.749-.747 0-.413.332-.749.748-.749h19.705l.815-2.865h-18.822c-.84 0-1.598-.409-1.977-1.068" mask="url(#xg1iguugrd)"/>
                    <path fill="#FD5E5A" d="M521.17 265.047c0 7.955-6.447 14.403-14.391 14.403-7.95 0-14.393-6.448-14.393-14.403s6.443-14.403 14.393-14.403c7.944 0 14.39 6.448 14.39 14.403" mask="url(#xg1iguugrd)"/>
                    <path fill="#FFF" d="M503.767 260.983h-1.542c1.119-4.967 6.5-4.69 8.212-1.89.982 1.606.783 3.732-1.38 5.005 2.502 1.016 3.587 3.874 2.095 6.44-1.974 3.393-8.371 3.76-9.43-1.989h1.479c1.57 5.917 9.259 2.056 6.642-1.994-.868-1.345-2.286-1.558-3.93-1.645v-1.388c1.713 0 3.514-.827 3.514-2.528 0-2.143-2.845-3.13-4.46-1.877-.472.369-.87.99-1.2 1.866" mask="url(#xg1iguugrd)"/>
                    <path fill="#8D75BB" d="M403.279 686.759L584.996 686.759 584.996 678.57 403.279 678.57zM403.279 705.035L584.996 705.035 584.996 696.846 403.279 696.846z" mask="url(#xg1iguugrd)"/>
                    <path fill="#7FCDFF" d="M187.621 334.782c-25.316 0-45.91-20.613-45.91-45.949 0-25.334 20.594-45.948 45.91-45.948 25.314 0 45.91 20.614 45.91 45.948 0 25.336-20.596 45.95-45.91 45.95m0-98.916c-29.228 0-52.921 23.714-52.921 52.966 0 29.253 23.693 52.967 52.921 52.967 29.228 0 52.922-23.714 52.922-52.967 0-29.252-23.694-52.966-52.922-52.966M732.452 335.816c-25.313 0-45.91-20.611-45.91-45.949 0-25.334 20.597-45.948 45.91-45.948 25.316 0 45.911 20.614 45.911 45.948 0 25.338-20.595 45.949-45.911 45.949m0-98.915c-29.228 0-52.922 23.714-52.922 52.966 0 29.253 23.694 52.967 52.922 52.967 29.228 0 52.923-23.714 52.923-52.967 0-29.252-23.695-52.966-52.923-52.966M732.452 163.326c-25.313 0-45.91-20.613-45.91-45.949s20.597-45.948 45.91-45.948c25.316 0 45.911 20.612 45.911 45.948 0 25.336-20.595 45.949-45.911 45.949m0-98.915c-29.228 0-52.922 23.714-52.922 52.966 0 29.253 23.694 52.967 52.922 52.967 29.228 0 52.923-23.714 52.923-52.967 0-29.252-23.695-52.966-52.923-52.966M732.452 511.945c-25.316 0-45.91-20.613-45.91-45.949 0-25.335 20.594-45.948 45.91-45.948 25.316 0 45.911 20.613 45.911 45.948 0 25.336-20.595 45.95-45.911 45.95m0-98.916c-29.228 0-52.922 23.714-52.922 52.966 0 29.253 23.694 52.967 52.922 52.967 29.228 0 52.923-23.714 52.923-52.967 0-29.252-23.695-52.966-52.923-52.966M187.621 480.655c-25.316 0-45.91-20.611-45.91-45.947 0-25.336 20.594-45.949 45.91-45.949 25.314 0 45.91 20.613 45.91 45.95 0 25.335-20.596 45.946-45.91 45.946m0-98.913c-29.228 0-52.921 23.714-52.921 52.966 0 29.253 23.693 52.965 52.921 52.965 29.228 0 52.922-23.712 52.922-52.965 0-29.252-23.694-52.966-52.922-52.966" mask="url(#xg1iguugrd)"/>
                    <path fill="#7FCDFF" d="M367.286 343.958c-.438 0-.883-.06-1.325-.18l-129.5-35.446c-2.736-.75-4.365-3.635-3.632-6.443.73-2.808 3.541-4.478 6.278-3.728l129.498 35.447c2.739.749 4.365 3.633 3.634 6.442-.612 2.354-2.686 3.908-4.953 3.908M379.434 454.007h-.018l-141.638-.473c-2.84-.01-5.133-2.373-5.124-5.28.009-2.901 2.308-5.246 5.14-5.246h.016l141.64.472c2.838.01 5.136 2.374 5.123 5.28-.009 2.901-2.309 5.247-5.139 5.247" mask="url(#xg1iguugrd)"/>
                    <path fill="#0A4CFE" d="M192.453 539.509L139.679 499.072 126.755 515.745z" mask="url(#xg1iguugrd)"/>
                    <path fill="#99D7FF" d="M139.67 548.88L140.424 517.589 192.453 539.509z" mask="url(#xg1iguugrd)"/>
                    <path fill="#99D7FF" d="M139.613 473.173L192.453 539.51 139.679 499.073z" mask="url(#xg1iguugrd)"/>
                    <path fill="#0033BF" d="M126.756 515.745L140.424 517.588 140.315 522.132z" mask="url(#xg1iguugrd)"/>
                    <path fill="#FFF" d="M718.105 301.975c.282-.01 3.221.088 3.221.267v-30.87c8.57-1.39 17.101-2.776 25.724-4.176v.933c0 10.977-.083 21.955.04 32.93.053 4.585-3.062 6.597-6.193 7.16-5.986 1.075-9.545-4.118-6.07-7.858 2.497-2.69 5.295-3.14 8.756-2.38V277.02l-18.774 3.44c0 .308-.047 16.922-.078 24.94-.015 4.314-2.913 6.93-6.974 7.126-9.397.456-7.734-10.24.348-10.55" mask="url(#xg1iguugrd)"/>
                    <path fill="#1F1A15" d="M362.171 332.814L356.092 332.814 331.892 228.491 340.703 228.028z" mask="url(#xg1iguugrd)"/>
                    <path fill="#0E1B29" d="M398.209 2.096s-20.85-3.56-28.143 10.852c-7.291 14.41-6.602 47 3.323 55.439 9.925 8.44 8.271 30.057 16.966 36.44 8.696 6.383 30.848 9.264 30.848-5.763 0 0-10.796 1.83-13.532-7.527 0 0 15.497 9.908 23.069-1.184 7.573-11.09-8.695-14.76-8.695-14.76s6.393 3.139-3.144 1.493c-9.534-1.648-3.31-4.03-3.31-12.098 0-8.066 5.894-2.366 4.21-17.188-1.683-14.824-14.488-46.215-21.592-45.704" mask="url(#xg1iguugrd)"/>
                    <path fill="#FC7575" d="M347.877 320.232l-2.024 14.126s-3.763 10.674-3.763 12.242c0 1.04 1.772 9.46 6.48 10.88 2.416.729 12.305-10.073 13.622-14.96 1.537-5.709-2.223-23.544-2.223-23.544l-12.092 1.256zM380.356 317.72s-2.686 20.72-2.686 23.86c0 3.137-.426 7.646 1.343 9.416 1.77 1.771 17.654-3.453 17.654-9.104 0-5.65-3.448-24.173-3.448-24.173h-12.863z" mask="url(#xg1iguugrd)"/>
                    <path fill="#FFDA88" d="M414.672 132.463c0-14.148-.585-60.162-.585-60.162s-8.36-5.669-25.09-5.669c-5.382 0-10.328-.922-15.683.053-11.303 2.058-21.576 6.897-21.576 6.897s3.47 43.412-1.952 73.052c-.958 5.236 3.133 10.041 8.45 10.041H411.1c3.566 0 6.274-3.207 5.69-6.727-1.244-7.513-2.118-13.813-2.118-17.485" mask="url(#xg1iguugrd)"/>
                    <path fill="#464A7F" d="M355.13 155.758c-8.57 6.646-10.402 8.934-12.842 11.929-19.042 23.389-13.558 55.149-4.904 53.957 8.653-1.193 26.539-4.294 40.388-1.407 13.846 2.886 45.002 2.02 47.885-9.24 1.924-7.497-8.321-33.601-13.863-54.322l-56.665-.917z" mask="url(#xg1iguugrd)"/>
                    <path fill="#35385F" d="M384.15 185.011l-6.48 10.178c-3.185 7.3-1.325 24.776-1.325 24.776l-28.467-1.443-1.355-26.845 37.626-6.666z" mask="url(#xg1iguugrd)"/>
                    <path fill="#6B6E98" d="M379.212 194.54s16.157-1.733 22.216 4.331c6.057 6.064-5.484 88.64-4.04 93.26 1.443 4.62 8.366 4.043 4.326 8.085-4.039 4.041-5.046 6.784-3.174 8.661 1.877 1.876 2.596 4.62.867 6.353-1.732 1.731-2.307 6.35-2.307 6.35h-19.337s-1.434-11.837-1.434-13.859c0-2.02-2.31-7.793-2.31-7.793s7.202-3.759 3.744-7.218c-3.458-3.463 0-8.663 0-16.171 0-7.505-10.666-80.556 1.449-81.999M330.259 194.31c5.59-5.595 14.626-6.292 23.566 0 8.945 6.294 5.77 21.884 5.77 36.033 0 14.147-.923 49.084.548 53.413 1.474 4.332 6.088 8.664 4.357 13.284-1.73 4.62-2.598 3.656.382 6.641 2.982 2.983 1.35 5.196 1.35 8.373 0 3.175-1.444 12.992-1.444 12.992h-18.463s-.865-17.614-5.48-24.542c-4.617-6.93-1.153-21.943-1.153-24.254 0-2.309-5.77-5.197-5.77-15.302 0-10.106-6.701-63.597-3.663-66.638" mask="url(#xg1iguugrd)"/>
                    <path fill="#FD5E5A" d="M352.631 73.581s-3.287 5.747-7.901 18.74c-4.614 12.994 3.147 64.483 3.147 73.145 0 8.663 10.854 19.545 10.854 19.545l9.232-10.393-6.06-37.537-9.272-63.5zM414.088 72.301s13.304 3.282 17.363 21.761c4.06 18.478 7.362 61.788 6.09 66.987-1.268 5.195-34.73 21.266-34.73 21.266l-2.827-5.677s25.378-21.943 25.378-25.119c0-3.175-10.863-42.923-10.863-42.923l-.411-36.295z" mask="url(#xg1iguugrd)"/>
                    <path fill="#241145" d="M311.706 138.238L319.207 191.515 412.677 188.189 410.827 134.777z" mask="url(#xg1iguugrd)"/>
                    <path fill="#ED1E79" d="M361.676 343.893c-8.713 5.521-15.192 4.941-19.58 2.835.115 1.462 1.92 9.38 6.475 10.752 2.21.667 10.67-8.31 13.105-13.587M396.667 341.892c0-1.256-.171-3.147-.435-5.33-5.027 4.525-11.741 7.503-18.233.862-.202 1.955-.329 3.472-.329 4.155 0 3.138-.426 7.647 1.343 9.417 1.77 1.771 17.654-3.453 17.654-9.104" mask="url(#xg1iguugrd)"/>
                    <path fill="#FC7575" d="M398.472 45.226s-.726 1.596-1.828 4.096c-3.815 8.663-1.387 21.948-1.194 24.26.385 4.639-2.093 14.132-2.093 14.132S375.23 75.02 374.204 66.686l9.83-30.133 14.438 8.673z" mask="url(#xg1iguugrd)"/>
                    <path fill="#FD5E5A" d="M384.034 36.553l14.439 8.673s-.73 1.6-1.828 4.096c-5.08-1.403-12.839-3.967-14.523-6.908l1.912-5.86z" mask="url(#xg1iguugrd)"/>
                    <path fill="#0E1B29" d="M387.525 11.977l21.806 12.045s4.526.102 4.526-4.942c0-5.045-5.555-9.984-11.212-12.868-5.658-2.88-12.752-4.126-12.752-4.126l-2.368 9.891z" mask="url(#xg1iguugrd)"/>
                    <path fill="#FC7575" d="M395.444 6.521s8.435 1.441 10.699 5.457c2.26 4.013 2.877 13.587 5.14 15.851 2.263 2.265 4.235 2.763 4.235 2.763s.6 1.046-1.661 2.18c-2.264 1.13-.552 2.367.856 2.367 1.405 0 .223 2.674-.856 2.985 0 0 1.387.41 1.129 1.75-.255 1.338-.924 1.594-.924 1.594s-.069 1.75.65 3.398c.721 1.647-1.028 6.536-12.067 4.375 0 0-16.409-3.86-17.385-8.492-.975-4.632-8.274-21.471-2.053-27.695 6.22-6.226 12.237-6.533 12.237-6.533" mask="url(#xg1iguugrd)"/>
                    <path fill="#1B3753" d="M387.833 1.832s2.572-2.68 12.857.255c10.286 2.934 12.743 14.577 12.743 14.577s-6.624-4.481-10.787-4.481c-4.167 0-13.591-1.584-15.121-3.113-1.53-1.531.308-7.238.308-7.238" mask="url(#xg1iguugrd)"/>
                    <path fill="#1B3753" d="M389.181 1.14c1.437 0 10.532 10.116 8.064 17.837-2.468 7.72-8.33 4.272-12.035 6.332-3.702 2.059.717 11.58.05 15.44-.666 3.86-11.057 25.937-11.057 25.937s-8.74-46.675-3.441-55.322c5.3-8.647 18.42-10.223 18.42-10.223" mask="url(#xg1iguugrd)"/>
                    <path fill="#FD5E5A" d="M400.114 33.105c0 1.153 1.932 2.087 4.316 2.087 2.385 0 4.317-.934 4.317-2.087s-1.932-2.087-4.317-2.087c-2.384 0-4.316.934-4.316 2.087" mask="url(#xg1iguugrd)"/>
                    <path fill="#1B3753" d="M410.49 24.021s-1.417 2.848-7.19 2.717l7.19-2.717zM408.747 22.624s-2.142-1.278-3.805-1.278c-1.663 0-3.197.67-3.197 1.278 0 0 1.822-.862 3.262-.64 1.437.226 2.11 1.333 2.686 1.333.575 0 1.054-.693 1.054-.693M384.79 33.028s7.996 18.549-8.064 39.273c-16.063 20.725-37.858 12.333-40.792 3.945-2.931-8.39 7.332-11.258 7.332-11.258s-1.959 9.493 3.257 9.042c5.216-.45 7.014-1.68 4.919-11.897-2.094-10.216 5.484-6.12 9.65-12.811 4.17-6.69 0-11.796 0-19.7 0-7.905 9.67-18.258 9.67-18.258l14.027 21.664z" mask="url(#xg1iguugrd)"/>
                    <path fill="#FC7575" d="M386.336 26.234s-2.975-6.485-4.365-5.095c-1.387 1.39-2.08 10.962 2.818 11.89 4.896.926 1.547-6.795 1.547-6.795" mask="url(#xg1iguugrd)"/>
                    <path fill="#FD5E5A" d="M386.123 27.024s-1.536-3.533-2.369-2.701c-.828.832.066 6.4 1.187 6.4 1.117 0 1.455-1.917 1.182-3.699" mask="url(#xg1iguugrd)"/>
                    <path fill="#1B3753" d="M408.964 26.952c0 .664-.302 1.201-.679 1.201-.376 0-.681-.537-.681-1.201 0-.662.305-1.198.681-1.198.377 0 .679.536.679 1.198" mask="url(#xg1iguugrd)"/>
                    <path fill="#50284C" d="M659.399 534.928s-18.73 5.946-21.49 10.395c-2.758 4.449-12.645 33.832-15.176 36.363-2.528 2.532-20.398 4.023-24.533 4.96l9.48 16.458s19.273.398 24.676 0c5.399-.398 27.043-68.176 27.043-68.176" mask="url(#xg1iguugrd)"/>
                    <path fill="#885E84" d="M690.926 538.835s29.7 28.731 25.095 61.184c0 0-6.667-11.422-19.316-9.163 0 0-5.919-12.468-7.676-20.292-1.757-7.827 1.897-31.73 1.897-31.73" mask="url(#xg1iguugrd)"/>
                    <path fill="#1F1A15" d="M667.797 799.186L673.876 799.186 698.077 694.865 689.265 694.4zM766.421 801.068L760.342 801.068 736.142 696.745 744.953 696.282zM603.751 789.809L597.672 789.809 573.471 685.486 582.283 685.022zM523.007 796.893L529.085 796.893 553.286 692.569 544.478 692.105z" mask="url(#xg1iguugrd)"/>
                    <path fill="#450000" d="M527.511 614.075v76.732c0 6.06 5.774 10.97 12.895 10.97H738.39c7.12 0 12.894-4.91 12.894-10.97v-76.732c0-6.06-5.773-10.972-12.894-10.972H540.406c-7.12 0-12.895 4.913-12.895 10.972" mask="url(#xg1iguugrd)"/>
                </g>
                <g transform="translate(193 -4376) translate(-193 4376) translate(527 602)">
                    <mask id="4ni285gj8g" fill="#fff">
                        <use xlink:href="#81vnul80re"/>
                    </mask>
                    <path fill="url(#yd0f00qp5f)" d="M143.857.194c-7.12 0-12.895 4.906-12.895 10.96v.775l-.026 47.823c-.423 5.726-6.023 10.258-12.868 10.258H39.663c-7.117 0-12.893-4.905-12.893-10.956v-47.9C26.77 5.1 20.998.193 13.878.193 6.756.194.982 5.1.982 11.154v76.64c0 6.05 5.774 10.956 12.896 10.956h198c7.12 0 12.895-4.905 12.895-10.956v-76.64c0-6.054-5.774-10.96-12.896-10.96h-68.02zM130.962 11.54v-.4.4z" mask="url(#4ni285gj8g)"/>
                </g>
                <g>
                    <path fill="#2F3453" d="M56.705 337.129s-1.91 1.426-2.301 4.784c-.284 2.439.912 6.28.912 9.48 0 7.61-1.752 9.951-1.752 9.951s-44.993-.293-44.993-2.342c0-2.047 16.65-13.754 23.373-13.754 6.721 0 11.978-15.513 11.978-15.513l11.394 4.975 1.389 2.419z" transform="translate(193 -4376) translate(-193 4376) translate(448 429)"/>
                    <path fill="#3A758D" d="M57.498 365.668l-18.094-.308c-7.45-.126-19.348.57-23.075.505-3.725-.063-17.06-9.097-16.125-11.956.935-2.86 13.164-1.933 19.6-5.057 6.44-3.127 18.233-13.26 19.888-11.524 1.659 1.734 12.619 2.393 14.712 4.585 2.094 2.193 4.99 21.899 3.094 23.755" transform="translate(193 -4376) translate(-193 4376) translate(448 429)"/>
                    <path fill="#ACFCDD" d="M54.916 360.7c-29.635-5.202-21.312 4.007-50.233-4.62 7.014 2.99 17.427 6.021 24.96 4.668 4.097-.738 8.362-.667 12.577-.624 4.225.073 8.456.316 12.696.576M35.058 352.369c-.417.481-1.14.529-1.613.11-1.658-1.474-5.327-4.42-8.88-6.441.699-.459 1.41-.936 2.125-1.425 4.243 2.574 8.01 5.896 8.262 6.122.473.424.52 1.156.106 1.634M36.826 347.647c-.553.305-1.25.094-1.548-.468-.027-.05-1.555-2.87-4.18-5.607.662-.457 1.31-.897 1.935-1.313 2.632 2.826 4.142 5.605 4.255 5.82.305.56.094 1.266-.462 1.568" transform="translate(193 -4376) translate(-193 4376) translate(448 429)"/>
                    <path fill="#202857" d="M180.943 203.88l-18.11-2.343s-64.635-34.188-75.436-21.66c-9.096 10.552-7.723 13.975 3.671 25.391 11.395 11.415 31.823 22.671 31.823 22.671l15.399 5.208-31.024-28.878 45.046 19.512h51.809l-23.178-19.9z" transform="translate(193 -4376) translate(-193 4376) translate(448 429)"/>
                    <path fill="#3F50AE" d="M217.758 223.782s.349 10.65-5.844 16.857c-6.194 6.207-82.388-.246-82.388-.246L64.08 343.198l-25.125-8.82s49.797-97.548 67.782-110.596c17.98-13.047 78.464-14.168 78.464-14.168l32.557 14.168z" transform="translate(193 -4376) translate(-193 4376) translate(448 429)"/>
                    <path fill="#9CABFC" d="M58.946 337.503l-1.33-.747s.951-1.695 2.625-4.654l1.326.752c-1.67 2.955-2.62 4.647-2.62 4.649M135.086 233.926c-5.539-.281-8.953-.305-10.599-.079l-.208-1.513c1.783-.241 5.182-.224 10.885.067l-.078 1.525zm21.437 1.435l-2.143-.153c-2.953-.214-5.834-.424-8.579-.614l.108-1.522c2.744.19 5.628.397 8.58.612l2.143.154-.109 1.523zm21.463 1.419c-3.464-.19-7.086-.418-10.739-.666l.103-1.523c3.647.248 7.26.474 10.72.664l-.084 1.525zm15.221.508c-1.397 0-2.889-.021-4.456-.059l.036-1.528c4.33.107 8.053.067 10.658-.141l.122 1.522c-1.709.138-3.85.206-6.36.206zm-81.884 12.502l-1.268-.85c2.345-3.493 4.436-6.472 6.219-8.848l1.22.916c-1.768 2.358-3.844 5.312-6.171 8.782zm-11.6 18.118l-1.298-.807c1.957-3.157 3.88-6.219 5.733-9.127l1.284.825c-1.852 2.9-3.768 5.956-5.72 9.109zm-11.165 18.398l-1.31-.783c1.842-3.09 3.699-6.181 5.55-9.234l1.302.793c-1.848 3.05-3.702 6.139-5.542 9.224zm-10.923 18.551l-1.318-.77c1.757-3.014 3.577-6.13 5.442-9.296l1.311.776c-1.861 3.165-3.682 6.279-5.435 9.29zm-10.76 18.657l-1.323-.758c1.61-2.819 3.417-5.965 5.365-9.347l1.32.762c-1.948 3.38-3.752 6.527-5.362 9.343zM209.672 233.506l-.702-1.359c3.514-1.824 4.557-2.544 4.566-2.55l.88 1.248c-.044.03-1.1.769-4.744 2.661" transform="translate(193 -4376) translate(-193 4376) translate(448 429)"/>
                    <path fill="#095270" d="M133.032 220.286s7.114 11.455 7.114 12.728c0 1.273 2.159 6.745 0 8.907-2.16 2.164-47.766-12.218-47.766-12.218s14.226-3.562 20.326-3.562c6.095 0 10.034-4.963 7.875-7.128-2.159-2.162 12.45 1.273 12.45 1.273" transform="translate(193 -4376) translate(-193 4376) translate(448 429)"/>
                    <path fill="#653870" d="M139.087 246.26s-3.367 1.515-17.22-4.343c-13.851-5.859-37.27-5.693-37.379-10.95-.106-5.261 17.002-6.486 27.063-4.054 10.064 2.428 22.54 6.22 27.364 10.861 4.822 4.641.172 8.487.172 8.487" transform="translate(193 -4376) translate(-193 4376) translate(448 429)"/>
                    <path fill="#CDFDEB" d="M84.49 230.966c-.874-6.462 24.239-11.006 48.72 1.766 10.117 5.461 9.73 10.73 5.877 13.528 9.88-11.24-30.48-18.986-39.408-19.357-4.105-.092-14.835-.007-15.19 4.063" transform="translate(193 -4376) translate(-193 4376) translate(448 429)"/>
                    <path fill="#6A3565" d="M223.017 99.098s18.564 6.123 21.62 11.366c12.535 21.525 3.265 114.68-26.88 125.61-15.243 5.53-54.925-34.537-54.925-34.537s29.099-23.578 30.968-59.707c1.781-34.457 29.217-42.732 29.217-42.732" transform="translate(193 -4376) translate(-193 4376) translate(448 429)"/>
                    <path fill="#EDEEFF" d="M162.832 201.537c15.576-11.812 28.51-30.762 32.056-52.437.94-7.619-.162-37.388 28.128-50.002-9.95 2.866-18.844 9.893-24.19 19.12-12.414 21.078.38 36.243-25.93 71.631-3.034 4.134-6.41 8.028-10.064 11.688" transform="translate(193 -4376) translate(-193 4376) translate(448 429)"/>
                    <path fill="#546BE8" d="M92.38 179.795s27.725 17.41 35.979 29.055c8.253 11.645 11.873 18.135 11.873 18.135l-31.274-4.632s-24.987-15.832-27.824-25.53c-2.833-9.697 5.853-20.551 11.246-17.028" transform="translate(193 -4376) translate(-193 4376) translate(448 429)"/>
                    <path fill="#98A6F1" d="M93.09 184.114c-2.25-1.78-3.618-2.808-3.621-2.81l.912-1.222s1.38 1.035 3.654 2.834l-.945 1.198zm7.095 5.778c-1.25-1.048-2.432-2.023-3.526-2.912l.96-1.187c1.1.895 2.29 1.876 3.545 2.93l-.98 1.17zm6.925 5.978c-1.166-1.04-2.318-2.047-3.438-3.013l.995-1.159c1.125.974 2.283 1.986 3.458 3.033l-1.015 1.139zm6.715 6.204c-1.105-1.062-2.218-2.108-3.329-3.132l1.034-1.122c1.116 1.03 2.24 2.082 3.352 3.154l-1.057 1.1zm6.422 6.489c-1.028-1.101-2.088-2.2-3.166-3.285l1.081-1.078c1.09 1.098 2.159 2.206 3.197 3.318l-1.112 1.045zm5.948 6.889c-.87-1.117-1.848-2.295-2.895-3.507l1.149-1c1.069 1.23 2.057 2.43 2.948 3.564l-1.202.943zm5.004 7.502c-.633-1.209-1.419-2.504-2.325-3.848l1.261-.857c.943 1.391 1.754 2.734 2.414 3.994l-1.35.71z" transform="translate(193 -4376) translate(-193 4376) translate(448 429)"/>
                    <path fill="#FC7575" d="M221.66 68.611l-7.405 32.682c-.401 1.78.823 9.375 2.02 10.756 2.777 3.2 9.098 5.997 14.872 3.113 5.033-2.512 5.383-43.742 5.383-43.742s-8.424-2.833-14.87-2.809" transform="translate(193 -4376) translate(-193 4376) translate(448 429)"/>
                    <path fill="#FD5E5A" d="M236.53 71.42s.006 1.36-.018 3.603c-.93 3.007-2.517 7.614-4.384 10.881-2.497 4.365-10.471 10.82-16.66 10.036l6.192-27.33c6.446-.022 14.87 2.81 14.87 2.81" transform="translate(193 -4376) translate(-193 4376) translate(448 429)"/>
                    <path fill="#132759" d="M244.488 31.778c2.09 4.793 3.266 11.097-1.497 13.173 5.231-1.526 4.867-8.667 3.292-13.875l-1.795.702z" transform="translate(193 -4376) translate(-193 4376) translate(448 429)"/>
                    <path fill="#FC7575" d="M221.391 44.194s-6.993-.55-9.499 7.941c-2.501 8.49-3.24 33.285 3.121 36.887 6.363 3.601 16.086-3.016 18.727-7.418 2.751-4.58 4.652-12.28 4.652-12.28s6.686-31.142-17.001-25.13" transform="translate(193 -4376) translate(-193 4376) translate(448 429)"/>
                    <path fill="#132759" d="M242.745 82.643s-1.995 1.586-3.29-1.274c0 0-3.008-6.597 1.46-10.236 4.47-3.64 11.106-8.523 11.773-16.687.665-8.166-8.913-10.057-8.913-10.057s.936-12.53-13.282-11.19c0 0-1.992-3.157-9.878-4.411-7.885-1.253-6.893 3.414-11.248 1.77-4.356-1.64-4.266-5.3-2.095-6.285 0 0-8.455 1.967-10.717 7.985-2.258 6.019 9.57 8.76 9.57 8.76s-9.853-.693-3.375 4.876c6.482 5.568 10.049 6.225 15.444 2.763 5.39-3.463 8.003-4.025 10.181-2.517 2.177 1.507.255 6.623 3.711 7.926 3.452 1.3 3.837 11.235 3.837 11.235s2.951-.361 1.46 6.253c-1.492 6.617-3.216 10.518.69 11.99 3.901 1.471 4.672-.9 4.672-.9" transform="translate(193 -4376) translate(-193 4376) translate(448 429)"/>
                    <path fill="#FC7575" d="M239.399 58.024c2.159.176 6.902 2.771 1.323 8.571-5.578 5.799-7.822-1.922-6.756-4.76 1.065-2.84 3.78-3.946 5.433-3.811" transform="translate(193 -4376) translate(-193 4376) translate(448 429)"/>
                    <path fill="#132759" d="M217.391 63.468c-.326 4.096-1.137 7.975-1.066 11.884.918.197 1.83.428 2.737.72-1.677.202-3.01.18-3.628.199 0-.207-.547-5.63 1.957-12.803M219.244 62.63c.23.087.495-.016.604-.241.033-.062.812-1.59 3.029-2.006 1.916-.363 6.04 1.635 7.473 2.433.246.14.525.045.655-.186.13-.232.047-.527-.186-.656-.223-.124-5.473-3.042-8.12-2.54-2.712.51-3.679 2.452-3.718 2.534-.116.24-.015.527.226.644.013.006.025.014.037.018" transform="translate(193 -4376) translate(-193 4376) translate(448 429)"/>
                    <path fill="#FFF" d="M223.591 79.008s-7.304.854-11.025-.87c0 0 .065 3.244 2.205 4.566 2.14 1.323 7.102.875 8.82-3.696" transform="translate(193 -4376) translate(-193 4376) translate(448 429)"/>
                    <path fill="#FD5E5A" d="M241.282 62.77s-1.354 4.638-3.645 4.12c-2.289-.518-2.126-4.15-.22-5.577 1.91-1.426 4.356.154 3.865 1.457" transform="translate(193 -4376) translate(-193 4376) translate(448 429)"/>
                    <path fill="#132759" d="M220.464 64.837c-.074.939.469 1.745 1.206 1.804.74.061 1.4-.653 1.475-1.591.072-.939-.466-1.747-1.206-1.806-.74-.058-1.4.655-1.475 1.593M210.942 63.596c-.074.938.466 1.746 1.206 1.806.74.059 1.4-.653 1.475-1.592.072-.938-.466-1.748-1.206-1.806-.74-.059-1.4.655-1.475 1.592M214.928 61.568c.136.23.059.527-.172.661-.13.075-.282.084-.412.035-.1-.038-.19-.108-.246-.208-.379-.647-1.599-2.42-2.668-2.823-.26-.099-.529-.18-.795-.246.037-.328.077-.65.118-.966.335.082.68.182 1.019.31 1.605.606 3.094 3.131 3.156 3.237" transform="translate(193 -4376) translate(-193 4376) translate(448 429)"/>
                    <path fill="#FABF44" d="M210.063 184.846v.005-.005zM210.063 185.059v.001-.001zM210.036 232.952c.019-35.012.025-45.3.028-47.895v.002-.22.007-.209.003V184.295c0-6.06 5.766-10.973 12.88-10.973h67.95c7.114 0 12.882 4.913 12.882 10.973v76.732c0 6.06-5.768 10.971-12.883 10.971h-93.031l-.68-28.774c6.838 0 12.431-4.54 12.854-10.272" transform="translate(193 -4376) translate(-193 4376) translate(448 429)"/>
                    <path fill="#890D00" d="M252.032 271.998h38.862c7.114 0 12.882-4.911 12.882-10.97v-76.733c0-6.06-5.768-10.973-12.882-10.973h-38.862c-7.11 0-12.879 4.913-12.879 10.973v76.732c0 6.06 5.768 10.971 12.88 10.971" transform="translate(193 -4376) translate(-193 4376) translate(448 429)"/>
                    <path fill="#FC7575" d="M249.113 160.223l-33.024 8.684s-9.711 7.027-14.076 8.422c-4.367 1.396-9.706 6.222-8.657 7.705 1.044 1.48 6.53-3.551 7.422-3.398.891.152-3.225 6.108-3.893 10.014-.667 3.908-2.004 7.699.227 7.393 2.23-.307 3.85-9.104 3.85-9.104s3.431-6.65 3.984-5.864c.554.784-2.29 5.35-2.29 5.35s-.676 4.936-.972 6.672c-.223 1.297.966 5.182 1.978 3.754.595-.84.317-4.049 1.007-5.88 1.417-3.757 3.734-6.735 3.734-6.735s-2.482 11.251-.922 11.519c1.56.267 3.174-9.053 3.174-9.053s3.812-7.762 5.475-8.453c1.661-.694 6.235-3.65 9.77-4.88 3.536-1.233 18.153 2.825 24.676 2.912 6.523.085 17.104-3.965 17.984-9.099.266-1.57-.708-3.303-2.19-4.954-4.315-4.795-11.025-6.644-17.257-5.005" transform="translate(193 -4376) translate(-193 4376) translate(448 429)"/>
                    <path fill="#FD5E5A" d="M150.838 156.865l-37.306 9.261s-9.71 7.028-14.077 8.423c-4.366 1.394-9.702 6.222-8.656 7.702 1.048 1.483 6.534-3.55 7.425-3.397.892.153-3.224 6.11-3.893 10.016-.67 3.906-2.005 7.698.228 7.391 2.23-.307 3.849-9.104 3.849-9.104s3.432-6.648 3.985-5.864c.553.785-2.292 5.35-2.292 5.35s-.675 4.936-.97 6.672c-.223 1.295.964 5.183 1.977 3.755.595-.84.313-4.048 1.006-5.88 1.42-3.757 3.734-6.735 3.734-6.735s-2.48 11.25-.92 11.519c1.56.269 3.174-9.053 3.174-9.053s3.81-7.762 5.471-8.454c1.665-.693 6.235-3.65 9.773-4.88 3.536-1.231 17.449.907 23.972.993 6.52.087 13.687-1.257 13.687-1.257s-3.935-18.096-10.167-16.458" transform="translate(193 -4376) translate(-193 4376) translate(448 429)"/>
                    <path fill="#411AC0" d="M260.196 54.687c.224 0 .444-.13.538-.35C273.377 25.761 239.843.63 239.503.381c-.26-.196-.634-.138-.826.126-.193.262-.137.634.127.827.33.244 33.11 24.82 20.853 52.52-.133.299 0 .65.299.782.077.033.16.05.24.05" transform="translate(193 -4376) translate(-193 4376) translate(448 429)"/>
                    <path fill="#838BC5" d="M193.355 216.173L135.24 211.172 88.163 214.208 133.33 217.039z" transform="translate(193 -4376) translate(-193 4376) translate(448 429)"/>
                    <path fill="#0F1D5B" d="M193.355 219.871L135.023 219.871 135.023 214.208 193.355 216.173z" transform="translate(193 -4376) translate(-193 4376) translate(448 429)"/>
                </g>
                <g transform="translate(193 -4376) translate(-193 4376) translate(538 573)">
                    <mask id="nh6nfqhszj" fill="#fff">
                        <use xlink:href="#53lay6qfnh"/>
                    </mask>
                    <path fill="url(#jiuholt78i)" d="M0.294 0.579L44.702 74.667 44.702 69.075 3.368 0.579z" mask="url(#nh6nfqhszj)"/>
                </g>
                <g>
                    <path fill="#0F1D5B" d="M19.228 489.513L59.86 474.619 104.765 549.663 54.949 548.269z" transform="translate(193 -4376) translate(-193 4376) translate(478 100)"/>
                    <path fill="#ED4790" d="M5.891 405.066h71.645c3.257 0 5.893 4.253 5.893 9.5v22.1c0 5.246-2.636 9.499-5.893 9.499h-3.243l9.136 30.087-28.582-30.087H5.891c-3.253 0-5.892-4.253-5.892-9.5v-22.1c0-5.246 2.639-9.499 5.892-9.499" transform="translate(193 -4376) translate(-193 4376) translate(478 100)"/>
                    <path fill="#FFF" d="M259.771.485c-16.003 0-28.977 5.597-28.977 12.503 0 3.45 3.242 6.575 8.486 8.838l-2.69 11.993 9.866-9.728c3.987.892 8.516 1.395 13.315 1.395 16.006 0 28.98-5.597 28.98-12.498 0-6.906-12.974-12.503-28.98-12.503" transform="translate(193 -4376) translate(-193 4376) translate(478 100)"/>
                    <path fill="#99D7FF" d="M271.144 16.173c0 1.318 1.066 2.386 2.38 2.386 1.319 0 2.387-1.068 2.387-2.386 0-1.32-1.068-2.387-2.386-2.387-1.315 0-2.381 1.068-2.381 2.387M264.846 16.173c0 1.318 1.066 2.386 2.38 2.386 1.317 0 2.387-1.068 2.387-2.386 0-1.32-1.07-2.387-2.386-2.387-1.315 0-2.381 1.068-2.381 2.387M258.548 16.173c0 1.318 1.066 2.386 2.38 2.386 1.317 0 2.384-1.068 2.384-2.386 0-1.32-1.067-2.387-2.383-2.387-1.315 0-2.381 1.068-2.381 2.387" transform="translate(193 -4376) translate(-193 4376) translate(478 100)"/>
                </g>
            </g>
        </g>
    </g>
</svg>
