<svg xmlns="http://www.w3.org/2000/svg" xmlns:xlink="http://www.w3.org/1999/xlink" width="697" height="621" viewBox="0 0 697 621">
    <defs>
        <path id="lth221ayka" d="M0.928 0.495L134.144 0.495 134.144 91.449 0.928 91.449z"/>
        <path id="th7mrzfdzc" d="M0.67 0.295L152.221 0.295 152.221 122.911 0.67 122.911z"/>
    </defs>
    <g fill="none" fill-rule="evenodd">
        <g>
            <g>
                <path fill="#B3CCFF" d="M271 231c-15.54 1.858-30.577 4.205-44.8 7.074-94.896 19.115-94.929 49.727-94.988 51.305-.005 1.282-.143 71.592-.143 71.407L131 398c.068-29.392 61.435-49.809 140-58.808V231zM574.192 261.525c-19.502-11.09-46.432-18.545-68.258-23.16C448.862 226.261 375.794 222.22 308 226.89v108.303c98.227-6.621 211.573 3.43 265.991 34.335 16.177 9.189 23.83 18.913 23.81 28.472.002-.467.003-.936.003-1.407.02-10.727.19-102.356.196-104.875.015-14.204-11.452-23.171-23.808-30.193" transform="translate(-743 -3553) translate(743 3553)"/>
                <path fill="#7E9DE0" d="M415 237.711c-17.08-1.12-34.623-1.711-52.248-1.711-15.384 0-30.734.433-45.752 1.296v88.635c15.9-.88 32.079-1.327 48.232-1.327 17.166 0 33.797.475 49.768 1.396v-88.289zM499 248.292c-16.902-3.465-35.454-6.252-55-8.292v88.126c19.69 1.89 38.092 4.545 55 7.874v-87.708zM568.279 269.963c-7.234-4.19-15.616-7.832-24.279-10.963v88.181c12.837 4.364 24.12 9.292 33.565 14.758 3.402 1.968 6.501 3.991 9.296 6.061l.139-76.085c.01-7.783-5.59-14.349-18.721-21.952" transform="translate(-743 -3553) translate(743 3553)"/>
                <g transform="translate(-743 -3553) translate(743 3553) translate(562 103)">
                    <mask id="kw0h8ro1ib" fill="#fff">
                        <use xlink:href="#lth221ayka"/>
                    </mask>
                    <path fill="#B0C2FE" d="M132.138 91.449H2.935c-1.11 0-2.007-.9-2.007-2.01V2.504c0-1.109.898-2.008 2.007-2.008h129.203c1.108 0 2.007.9 2.007 2.008V89.44c0 1.11-.899 2.009-2.007 2.009" mask="url(#kw0h8ro1ib)"/>
                </g>
                <path fill="#95A9FE" d="M667.102 178h-77.204c-3.258 0-5.898-2.686-5.898-6v-45c0-3.315 2.64-6 5.898-6h77.204c3.258 0 5.898 2.685 5.898 6v45c0 3.314-2.64 6-5.898 6" transform="translate(-743 -3553) translate(743 3553)"/>
                <path fill="#FFF" d="M664 127L595 127 628.924 160z" transform="translate(-743 -3553) translate(743 3553)"/>
                <path fill="#FFF" d="M628.967 167.648L589 130 589 173 669 173 669 131.179z" transform="translate(-743 -3553) translate(743 3553)"/>
                <path fill="#235893" d="M527 608c0 6.627-62.234 12-139 12-76.768 0-139-5.373-139-12 0-6.629 62.232-12 139-12 76.766 0 139 5.371 139 12" transform="translate(-743 -3553) translate(743 3553)"/>
                <path fill="#FC7575" d="M448 584.358L452.455 603 466 598.995s-.906-7.389-2.585-18.995L448 584.358zM367 579.565l.033 18.435 14.099-.66s.825-7.114 1.868-18.34l-16 .565z" transform="translate(-743 -3553) translate(743 3553)"/>
                <path fill="#170F33" d="M431.697 146.041s9.975 4.005 14.818 9.01c4.844 5.005 7.046 14.951 6.077 22.817-.968 7.864-3.044 9.294-3.044 9.294s4.58 11.01 3.19 20.447c-1.391 9.438-11.77 18.446-18.551 19.733 0 0 9.404-11.153 8.162-17.016 0 0-6.777 9.58-13.56 13.298-6.778 3.718-39.575 36.37-60.789 13.037 0 0 17.338-7.746 11.663-23.189-5.674-15.444 9.964-29.456 9.964-29.456s-12.178 6.72-18.543-2.288c-6.365-9.008 4.566-16.015 5.12-15.444.553.573-4.29 8.723 1.384 10.868 5.674 2.144 6.988-6.507 15.915-15.73 8.925-9.222 33.904-19.814 38.194-15.38" transform="translate(-743 -3553) translate(743 3553)"/>
                <path fill="#FC7575" d="M428.736 227.03L434 193.237 416.251 192 411 219.881c3.817 3.565 10.712 10.715 17.736 7.149" transform="translate(-743 -3553) translate(743 3553)"/>
                <path fill="#FD5E5A" d="M430.679 208L433 193.236 415.083 192 413 202.966c.211.264.435.527.675.783 3.307 3.572 10.708 9.323 17.004 4.25" transform="translate(-743 -3553) translate(743 3553)"/>
                <path fill="#FC7575" d="M436.743 154.502S444 157.09 444 166.97c0 0-.791 22.623-9.82 33.93-6.616 8.287-15.442 2.054-19.131-1.64-5.375-5.382-3.849-12.701-3.849-22.58 0-9.88 15.626-29.197 25.543-22.177" transform="translate(-743 -3553) translate(743 3553)"/>
                <path fill="#2D1E66" d="M423 177.5c0 1.38-.672 2.5-1.5 2.5s-1.5-1.12-1.5-2.5.672-2.5 1.5-2.5 1.5 1.12 1.5 2.5M439 179.5c0 1.379-.671 2.5-1.499 2.5-.828 0-1.501-1.121-1.501-2.5 0-1.38.673-2.5 1.501-2.5.828 0 1.499 1.12 1.499 2.5" transform="translate(-743 -3553) translate(743 3553)"/>
                <path fill="#2D1E66" d="M416 176.509s3.488-1.966 6.071-1.41C424.656 175.654 425 177 425 177s-2.11-1.395-4.909-1c-2.8.395-4.091.509-4.091.509M444 181s-2.841-2.97-5.55-3c-2.707-.028-3.45 1.34-3.45 1.34s2.494-.993 5.13.115C442.763 180.564 444 181 444 181M432.15 182c.403 1.95 1.098 3.819 1.898 5.66-.94.612-2.887 1.054-4.048 1.33 3.768.127 4.827-1.091 5-1.14 0 0-1.365-3.543-2.85-5.85" transform="translate(-743 -3553) translate(743 3553)"/>
                <path fill="#FD5E5A" d="M424 185c0 1.657-2.014 3-4.5 3s-4.5-1.343-4.5-3 2.014-3 4.5-3 4.5 1.343 4.5 3M440.999 183c-2.207 0-3.999 1.355-3.999 3.025 0 1.486 1.42 2.722 3.288 2.975.662-1.962 1.23-3.95 1.712-5.903-.32-.063-.656-.097-1.001-.097" transform="translate(-743 -3553) translate(743 3553)"/>
                <path fill="#2D1E66" d="M440.962 151.938s1.262 13.508-10.733 14.383c-11.996.875-19.62 6.797-19.62 6.797L405.268 189s-2.587-12.257-2.234-21.248c.353-8.991 13.289-21.497 21.867-22.64 8.58-1.143 16.062 6.826 16.062 6.826" transform="translate(-743 -3553) translate(743 3553)"/>
                <path fill="#FC7575" d="M412.202 175.353s-.878-2.893-3.613-2.263c-2.738.629-1.395 8.134 0 9.432 1.394 1.298 6.317.283 3.613-7.17" transform="translate(-743 -3553) translate(743 3553)"/>
                <path fill="#FD5E5A" d="M412 176.743s-1.434-3.743-2.57-2.484c-1.137 1.26.229 6.741 1.22 6.741s1.35-4.257 1.35-4.257" transform="translate(-743 -3553) translate(743 3553)"/>
                <path fill="#2D1E66" d="M422.655 193.213c-.327-.24-.224-.325-.463 0-.675.92.495 3.94 2.497 4.58 2.597.826 6.311-.99 6.311-2.487 0-.484-3.391 1.388-8.345-2.093M418 172.367s4.433-1.367 6.203-1.367c1.773 0 4.2 1.746 3.74 2.77-.46 1.025-2.587-1.707-4.049-1.707-1.461 0-5.894.304-5.894.304M441 176s-1.016-2.407-2.648-2.888c-1.633-.482-4.438.678-4.35 1.872.09 1.192 2.94-1.078 4.288-.68C439.636 174.7 441 176 441 176" transform="translate(-743 -3553) translate(743 3553)"/>
                <path fill="#FC7575" d="M389 219.82c-8.61-11.034-28.533-40.037-30.293-74.132-2.564-49.683 5.17-65.448 5.17-65.448s5.741-4.395 7.823-7.624c2.081-3.23 6.408-6.387 4.363-7.645-2.047-1.258-4.92 2.63-5.812 4.013-.313.484-.78.56-1.258.455-1.25-.276-1.95-1.595-1.577-2.791.379-1.213 1.258-3.176 3.236-6.245 4.163-6.459 7.368-12.554 5.316-12.099-2.053.457-8.773 12.093-10.26 14.4-1.485 2.307 3.851-10.597 5.822-16.041 1.97-5.446-1.455-4.01-2.352-.91-.9 3.098-6.183 15.948-7.05 15.415-.865-.533 4.604-15.417 2.48-16.724-2.126-1.308-1.612 2.087-2.408 4.46-.797 2.374-1.385 10.746-3.608 11.24 0 0-.83-11.411-1.812-10.316-.49.547-1.927 12.7-2.012 17.842-.203 12.1-17.154 76.65-13.159 93.63 3.896 16.554 9.012 64.091 22.617 73.65 15.99.567 17.355-3.621 24.774-15.13" transform="translate(-743 -3553) translate(743 3553)"/>
                <path fill="#FD5E5A" d="M358.815 149c-6.568.523-12.21 2.927-16.815 5.898-.001 2.763.175 5.112.572 6.923.995 4.545 2.075 11.405 3.378 19.179l17.05-8.998c-2.057-7.249-3.57-14.972-4.185-23.002" transform="translate(-743 -3553) translate(743 3553)"/>
                <path fill="#FC7575" d="M452.344 247c11.388 7.914 41.219 26.08 75.409 26.388 49.823.446 65.288-7.718 65.288-7.718s4.165-5.759 7.314-7.915c3.147-2.154 6.13-6.49 7.475-4.553 1.342 1.937-2.434 4.888-3.783 5.812-.472.323-.53.782-.404 1.24.328 1.203 1.675 1.83 2.856 1.418 1.2-.418 3.128-1.353 6.118-3.401 6.297-4.31 12.266-7.677 11.893-5.664-.372 2.014-11.746 9.023-13.993 10.562-2.25 1.54 10.445-4.177 15.818-6.317 5.367-2.139 4.069 1.25 1.004 2.25-3.065.999-15.71 6.663-15.143 7.482.57.82 15.245-5.108 16.637-3.096 1.394 2.011-2.023 1.651-4.366 2.524-2.343.871-10.696 1.786-11.102 3.969 0 0 11.453.334 10.399 1.335-.53.499-12.633 2.393-17.774 2.69-12.102.694-76.013 19.82-93.168 16.637-16.723-3.105-64.502-6.12-74.618-18.946-1.213-15.516 2.922-17.016 14.14-24.697" transform="translate(-743 -3553) translate(743 3553)"/>
                <path fill="#FD5E5A" d="M506 271.721c-8.723-1.884-16.88-4.653-24.172-7.721-1.567 4.393-.81 14.557 1.427 23.369 6.945 1.033 13.669 1.87 19.361 2.631 2.546-6.72 3.254-13.551 3.384-18.279" transform="translate(-743 -3553) translate(743 3553)"/>
                <path fill="#DFB866" d="M367.998 315S349 357.95 349 371.373c0 13.42 9.97 209.4 9.97 209.4l31.142 1.323s-1.34-183.21 3.351-187.906c4.691-4.698 9.38-4.029 9.38-4.029L442.94 585 472 582.786s-15.546-185.912-23.588-206.046C440.373 356.61 422.949 315 422.949 315h-54.95z" transform="translate(-743 -3553) translate(743 3553)"/>
                <path fill="#ECD4A3" d="M395.661 339c-17.405 0-30.48-8.772-30.661-8.894l1.514-2.106c.234.158 23.876 15.964 49.334 3.882L417 334.2c-7.423 3.522-14.695 4.8-21.339 4.8" transform="translate(-743 -3553) translate(743 3553)"/>
                <path fill="#ECD4A3" d="M396 329.5c0 1.933-1.567 3.5-3.5 3.5s-3.5-1.567-3.5-3.5 1.567-3.5 3.5-3.5 3.5 1.567 3.5 3.5M384.992 336L382 335.732 384.007 318 387 318.267z" transform="translate(-743 -3553) translate(743 3553)"/>
                <path fill="#8937DC" d="M332 173.633s10.003 63.293 18.584 63.293c0 0-15.647 61.578 16.152 77.852 31.8 16.275 66.364 1.458 77.228-9.376 10.863-10.833 21.704-11.095 34.828-5.557C491.914 305.382 501 277.334 501 263.17c0-14.164-51.149-31.542-76.891-42.195-25.743-10.654-34.66-9.72-44.249-24.317-9.59-14.597-9.59-41.275-19.686-37.25C350.079 163.437 332 173.634 332 173.634" transform="translate(-743 -3553) translate(743 3553)"/>
                <path fill="#FC7575" d="M423.893 221.327c-18.836-7.752-28.622-9.309-36.279-15.327-1.206 11.722-1.835 34.578 10.143 42.605 13.907 9.317 45.85-2.249 59.243-14.106-14.77-6.505-21.637-8.452-33.107-13.172" transform="translate(-743 -3553) translate(743 3553)"/>
                <path fill="#2D1E66" d="M437 156.007s-21.71 12.985-23.86 18.665c-2.151 5.68-9.65 13.809-4.671 32.105 4.981 18.295-13.988 26.111-20.84 20.368-6.851-5.743-5.453-17.922 0-17.025 0 0 2.616 5.555 6.875 1.288 4.261-4.267.542-19.89-.184-29.93-.727-10.038 24.46-50.41 42.68-25.47" transform="translate(-743 -3553) translate(743 3553)"/>
                <path fill="#70A3FF" d="M380 593.652l-1.432 14.22c-.58 5.755 1.61 10.572-5.932 11.07-7.541.498-15.226-2.262-15.622-6.058-.395-3.795 7.802-11.922 8.177-15.646s2.649-5.052 3.768-3.752c1.117 1.3 11.041.166 11.041.166" transform="translate(-743 -3553) translate(743 3553)"/>
                <path fill="#385280" d="M378 617.22c-1.358 1.374-3.151 1.422-5.11 1.319-4.17-.196-13.242-1.375-14.842-5.539-.204 1.098.268 2.277.896 3.186 4.643 6.335 17.974 6.142 19.056 1.033M366.02 601.203c-.439 4.679 6.242 6.664 8.737 2.6.04-.064.079-.128.118-.195 3.947-6.549 4.379-8.407 5.195-9.898.907-1.657 2.101-3.93-1.614-5.954-3.717-2.025-9.392-2.358-9.563-.687-.113 1.114-2.211 7.096-2.872 14.134" transform="translate(-743 -3553) translate(743 3553)"/>
                <path fill="#FFF" d="M378.686 587.777c3.379 2.051 2.294 4.355 1.467 6.034-.741 1.509-1.134 3.391-4.72 10.026l-.109.198c-.204.37-.439.692-.698.965.06-.095.12-.193.177-.299.036-.065.072-.128.108-.196 3.587-6.635 3.98-8.517 4.722-10.026.825-1.68 1.912-3.983-1.467-6.034-2.773-1.683-6.746-2.21-8.166-1.412.249-1.635 5.34-1.287 8.686.744" transform="translate(-743 -3553) translate(743 3553)"/>
                <path fill="#5491FF" d="M374 604.48s.818-9.986 2.562-10.254c1.745-.268 4.438-.223 4.438-.223s-2.024 9.986-4.236 11.513C374.55 607.04 374 604.48 374 604.48" transform="translate(-743 -3553) translate(743 3553)"/>
                <path fill="#FFF" d="M367.002 596.296c-.013.1.035.203.143.275 4.03 2.719 10.325.738 10.59.652.222-.071.325-.262.23-.429-.095-.166-.352-.243-.574-.172-.06.02-6.05 1.9-9.663-.538-.178-.121-.454-.11-.616.025-.064.054-.101.119-.11.187M366.002 600.385c-.013.124.032.254.138.347 2.546 2.303 10.183.778 10.507.712.241-.05.393-.274.344-.503-.053-.23-.291-.376-.533-.328-2.078.424-7.87 1.16-9.702-.496-.178-.161-.461-.155-.632.015-.072.071-.113.161-.122.253M366.002 603.355c-.01.1.021.205.095.29 1.9 2.114 9.657 1.153 10.536 1.036.232-.03.397-.229.362-.446-.033-.215-.25-.362-.486-.332-2.254.298-8.4.744-9.75-.76-.15-.167-.42-.192-.603-.053-.092.07-.144.166-.154.265" transform="translate(-743 -3553) translate(743 3553)"/>
                <path fill="#5491FF" d="M375.373 609.246s1.303 5.537.152 6.47c-1.15.934-14.75-.549-14.522-2.87.227-2.32 3.746-6.598 4.993-6.835 1.249-.235 9.377 3.235 9.377 3.235M468.819 586s-7.616 1.24-7.814 6.245c-.202 5.005 6.101 11.755 6.101 11.755l5.894-3.966s-2.586-2.764-3.13-7.47c-.545-4.71-1.051-6.564-1.051-6.564" transform="translate(-743 -3553) translate(743 3553)"/>
                <path fill="#547ABF" d="M450.354 614.708l13.046.29c5.374.118 13.929.942 16.614 1.002 2.686.059 12.551-5.942 11.96-7.987-.592-2.042-9.429-1.731-13.981-4.116-4.55-2.385-12.379-8.104-14-8.687-2.539-.91-9.162 1.337-10.733 2.825-1.571 1.488-4.219 15.312-2.906 16.673" transform="translate(-743 -3553) translate(743 3553)"/>
                <path fill="#385280" d="M453 610.88c21.308-2.88 15.105 3.47 36-1.88-5.092 1.94-12.613 3.813-17.956 2.633-2.904-.647-5.952-.716-8.96-.804-3.023-.069-6.05-.014-9.084.052" transform="translate(-743 -3553) translate(743 3553)"/>
                <path fill="#FFF" d="M467.183 605.673c.289.379.814.437 1.17.131 1.249-1.075 4.005-3.214 6.647-4.652-.494-.37-1-.757-1.507-1.152-3.16 1.838-5.994 4.264-6.186 4.426-.356.31-.41.868-.124 1.247M466.416 601.883c.404.236.922.104 1.162-.295.02-.035 2.398-3.164 4.422-5.069-.195-.642-.421-1.2-.873-1.519-2.031 1.968-4.917 5.583-5.007 5.736-.24.394-.109.911.296 1.147" transform="translate(-743 -3553) translate(743 3553)"/>
                <path fill="#ECD4A3" d="M355 574L391 574.914 391 583 355 582.454z" transform="translate(-743 -3553) translate(743 3553)"/>
                <path fill="#FF815C" d="M402 390.471L441.948 585 456 583.927 412.568 377z" transform="translate(-743 -3553) translate(743 3553)"/>
                <path fill="#ECD4A3" d="M438 578.381L474 576 474 582.857 439.646 586z" transform="translate(-743 -3553) translate(743 3553)"/>
                <path fill="#DAE6FF" d="M337 353.87c-106.58-3.778-204.87-26.216-204.8-63.87l-.2 107.866c-.068 36.299 97.578 60.11 205 64.134V353.87z" transform="translate(-743 -3553) translate(743 3553)"/>
                <path fill="#DAE6FF" d="M128 426v13.329c-.07 37.536 98.317 59.905 205 63.671v-13.329C226.317 485.907 127.93 463.536 128 426M127.5 535l-.016 12.96c0 .349.006.694.016 1.04l.016-13.552c-.007-.15-.012-.297-.017-.448M135.018 475l-.018 9.164c-.068 36.696 97.577 60.766 205 64.836v-10.034c-106.572-4.037-203.52-27.76-204.982-63.966" transform="translate(-743 -3553) translate(743 3553)"/>
                <path fill="#B3CBFF" d="M141.142 321L141 397.547c-.027 13.818 27.443 29.333 76 40.453v-88.687c-29.732-6.23-57.959-15.25-75.858-28.313M225 352v9.846c39.585 7.343 80.416 10.135 102 11.154v-9.846c-21.584-1.019-62.415-3.81-102-11.154M225 381.846c39.585 7.343 80.416 10.135 102 11.154v-9.846c-21.584-1.019-62.415-3.812-102-11.154v9.846zM225 402.847c39.585 7.341 80.416 10.134 102 11.153v-9.847c-21.584-1.018-62.415-3.81-102-11.153v9.847zM225 422.846c39.585 7.343 80.416 10.135 102 11.154v-9.846c-21.584-1.019-62.415-3.81-102-11.154v9.846zM225 440.035c28.035 5.733 62.372 10.061 102 11.965v-7.733c-21.584-1.03-62.415-3.85-102-11.267v7.035z" transform="translate(-743 -3553) translate(743 3553)"/>
                <path fill="#DAE6FF" d="M597 291c-.012 10.393-9.708 18.422-9.084 17.818-12.49 12.05-33.936 21.61-60.916 28.818V445c9.258-2.544 17.989-5.374 26.08-8.5 16.71-6.43 43.246-19.36 43.713-37.204.002-.118-.034 19.812.207-108.296" transform="translate(-743 -3553) translate(743 3553)"/>
                <path fill="#95A9FE" d="M537 344.973c21.755-6.327 38.841-14.025 51-22.973l-.145 77.079c-.287 8.706-14.77 19.57-37.826 28.367-4.117 1.577-8.472 3.097-13.029 4.554v-87.027z" transform="translate(-743 -3553) translate(743 3553)"/>
                <path fill="#B0C2FE" d="M243.824 9.003c48.049-.26 87.079 14.198 87.176 32.293.05 9.05-9.644 17.293-25.356 23.307L313.895 96 284.14 70.66c-11.96 2.403-25.548 3.796-39.963 3.875-48.048.26-87.079-14.197-87.176-32.293-.098-18.096 38.774-32.977 86.824-33.239" transform="translate(-743 -3553) translate(743 3553)"/>
                <g transform="translate(-743 -3553) translate(743 3553) translate(451)">
                    <mask id="waw7d0ifzd" fill="#fff">
                        <use xlink:href="#th7mrzfdzc"/>
                    </mask>
                    <path fill="#F99" d="M140.933.294H11.959C5.725.294.67 5.358.67 11.601v38.93c0 6.245 5.056 11.307 11.29 11.307H54.19l-21.264 61.073 37.378-61.073h70.629c6.233 0 11.288-5.062 11.288-11.307v-38.93c0-6.243-5.055-11.307-11.288-11.307" mask="url(#waw7d0ifzd)"/>
                </g>
                <path fill="#F99" d="M27.322 125h129.355c6.253 0 11.323 5.038 11.323 11.25v38.734c0 6.213-5.07 11.25-11.323 11.25h-42.358L135.648 247 98.16 186.235H27.322c-6.254 0-11.322-5.038-11.322-11.25V136.25c0-6.212 5.068-11.25 11.322-11.25M671.25 533.994l-95.226-3.647c-4.604-.176-8.193-4.073-8.018-8.706l1.093-28.871c.175-4.63 4.048-8.243 8.652-8.067l31.18 1.194L594.945 440l25.884 46.354 52.15 1.996c4.602.176 8.191 4.073 8.016 8.705l-1.091 28.873c-.176 4.631-4.049 8.242-8.653 8.066" transform="translate(-743 -3553) translate(743 3553)"/>
                <path fill="#DAE6FF" d="M457 262c-4.547 15.973-15.737 31.076-30.33 37.451-17.342 8.638-38.869 2.48-44.726 1.604-.408-.196-23.194-6.113-27.944-22.438 7.312 18.106 34.932 24.319 56.41 22.85C433.043 299.26 449.564 282.11 457 262" transform="translate(-743 -3553) translate(743 3553)"/>
                <path fill="#99D7FF" d="M462.578 163c-.448 0-.906-.13-1.31-.4-1.983-1.325-4.036-2.652-6.096-3.939-1.144-.715-1.514-2.255-.826-3.445.69-1.188 2.176-1.57 3.322-.857 2.102 1.314 4.197 2.665 6.222 4.021 1.124.75 1.448 2.304.724 3.469-.464.746-1.242 1.151-2.036 1.151M261.53 111.184h-.058c-4.807-.106-9.51-.16-13.979-.16h-.8c-1.386 0-2.51-1.126-2.51-2.512 0-1.387 1.124-2.512 2.51-2.512h.8c4.507 0 9.247.055 14.091.16 1.386.031 2.485 1.18 2.455 2.568-.03 1.367-1.148 2.456-2.51 2.456M210.45 112.4c-1.294 0-2.394-.995-2.499-2.31-.11-1.384.92-2.593 2.302-2.705 4.807-.385 9.82-.694 14.903-.918 1.36-.075 2.558 1.013 2.62 2.401.06 1.385-1.013 2.557-2.4 2.62-5.023.219-9.976.525-14.72.904-.069.005-.138.008-.206.008m87.307.575c-.07 0-.137-.005-.205-.009-4.834-.387-9.794-.72-14.747-.991-1.384-.075-2.445-1.258-2.37-2.646.076-1.385 1.226-2.413 2.646-2.372 4.992.274 9.997.609 14.873 1.002 1.383.11 2.414 1.321 2.302 2.705-.105 1.315-1.205 2.31-2.5 2.31m36.022 4.168c-.128 0-.256-.009-.384-.03-4.804-.734-9.726-1.412-14.624-2.007-1.376-.168-2.355-1.42-2.189-2.797.168-1.378 1.429-2.343 2.797-2.19 4.95.603 9.922 1.285 14.778 2.03 1.37.21 2.312 1.491 2.1 2.864-.189 1.24-1.26 2.13-2.478 2.13m-159.26.07c-1.178 0-2.226-.83-2.462-2.03-.265-1.36.623-2.68 1.985-2.947 4.776-.932 9.74-1.769 14.757-2.486 1.36-.19 2.644.76 2.841 2.133.194 1.373-.758 2.647-2.131 2.841-4.932.705-9.811 1.526-14.507 2.444-.162.031-.324.046-.483.046m194.832 6.919c-.196 0-.395-.024-.594-.07-4.687-1.138-9.528-2.218-14.388-3.21-1.36-.278-2.238-1.605-1.96-2.963.278-1.361 1.603-2.238 2.962-1.96 4.922 1.004 9.824 2.098 14.57 3.25 1.35.326 2.177 1.686 1.849 3.033-.279 1.15-1.307 1.92-2.44 1.92m-229.788 2.58c-1.03 0-1.997-.637-2.365-1.662-.467-1.307.21-2.745 1.515-3.215 4.61-1.652 9.416-3.195 14.283-4.58 1.333-.38 2.723.391 3.103 1.726.38 1.334-.393 2.725-1.727 3.103-4.76 1.358-9.457 2.865-13.96 4.481-.283.1-.568.148-.849.148m264.543 7.715c-.279 0-.563-.045-.84-.144-4.567-1.62-9.272-3.171-13.982-4.61-1.325-.406-2.074-1.808-1.669-3.137.407-1.325 1.81-2.075 3.136-1.667 4.78 1.46 9.557 3.033 14.193 4.678 1.309.464 1.99 1.9 1.528 3.207-.365 1.03-1.334 1.673-2.366 1.673m-297.36 7.568c-.86 0-1.697-.442-2.165-1.24-.704-1.194-.305-2.733.891-3.439 4.26-2.509 8.717-4.893 13.247-7.093 1.25-.604 2.75-.084 3.358 1.163.604 1.249.084 2.751-1.163 3.357-4.411 2.14-8.748 4.462-12.896 6.904-.4.236-.838.348-1.272.348m330.743 6.538c-.376 0-.757-.084-1.117-.263-4.324-2.15-8.808-4.238-13.328-6.205-1.273-.554-1.856-2.033-1.304-3.304.554-1.273 2.034-1.854 3.304-1.303 4.602 2.001 9.166 4.126 13.564 6.314 1.243.62 1.748 2.126 1.13 3.368-.438.884-1.328 1.393-2.25 1.393M77.584 163.431c-.683 0-1.365-.277-1.861-.823-.93-1.027-.853-2.616.174-3.549 3.707-3.363 7.595-6.6 11.553-9.628 1.105-.84 2.678-.63 3.522.47.842 1.102.63 2.68-.472 3.521-3.848 2.942-7.625 6.091-11.228 9.358-.481.436-1.084.651-1.688.651m-24.699 26.512c-.548 0-1.1-.178-1.561-.545-1.087-.864-1.267-2.445-.404-3.53 3.103-3.9 6.367-7.746 9.704-11.434.931-1.032 2.522-1.105 3.548-.177 1.028.93 1.108 2.52.177 3.55-3.267 3.609-6.461 7.373-9.498 11.188-.495.624-1.227.948-1.966.948m-20.324 30c-.421 0-.85-.106-1.241-.33-1.205-.686-1.626-2.22-.937-3.426 2.46-4.314 5.097-8.616 7.835-12.784.763-1.158 2.322-1.48 3.479-.72 1.157.762 1.481 2.32.72 3.48-2.684 4.079-5.262 8.289-7.672 12.514-.464.811-1.312 1.267-2.184 1.267m-15.467 32.765c-.297 0-.598-.052-.892-.164-1.296-.493-1.947-1.944-1.455-3.24 1.764-4.644 3.708-9.3 5.774-13.84.576-1.26 2.062-1.82 3.327-1.246 1.264.577 1.82 2.065 1.245 3.329-2.022 4.443-3.924 8.999-5.65 13.542-.381 1.001-1.336 1.619-2.349 1.619M6.94 287.489c-.17 0-.34-.016-.51-.053-1.36-.282-2.232-1.61-1.952-2.967 1.004-4.85 2.188-9.756 3.524-14.58.368-1.34 1.753-2.121 3.088-1.75 1.338.368 2.123 1.751 1.751 3.087-1.304 4.722-2.464 9.518-3.444 14.258-.246 1.189-1.29 2.005-2.457 2.005m-4.427 35.953c-.032 0-.066 0-.099-.002-1.387-.056-2.467-1.222-2.412-2.61.194-4.955.567-9.989 1.105-14.962.148-1.379 1.388-2.376 2.767-2.227 1.38.149 2.375 1.389 2.227 2.766-.528 4.86-.89 9.78-1.08 14.62-.054 1.353-1.168 2.415-2.508 2.415m1.623 36.191c-1.242 0-2.321-.92-2.486-2.183-.149-1.14-.29-2.276-.42-3.422-.439-3.81-.779-7.69-1.009-11.524-.084-1.383.971-2.573 2.355-2.658 1.37-.076 2.575.972 2.659 2.355.224 3.746.556 7.53.985 11.257.127 1.117.264 2.227.41 3.337.179 1.377-.789 2.638-2.163 2.817-.112.015-.22.021-.331.021m7.934 35.34c-1.06 0-2.047-.678-2.39-1.741-1.53-4.748-2.899-9.613-4.071-14.465-.324-1.35.505-2.706 1.851-3.03 1.352-.323 2.707.503 3.03 1.85 1.144 4.73 2.481 9.476 3.97 14.104.424 1.321-.3 2.736-1.62 3.16-.258.084-.516.122-.77.122m14.175 33.335c-.896 0-1.763-.481-2.215-1.326-2.36-4.405-4.582-8.944-6.602-13.487-.565-1.268.004-2.753 1.272-3.316 1.265-.568 2.753.003 3.315 1.272 1.974 4.434 4.14 8.859 6.442 13.158.655 1.225.194 2.748-1.028 3.4-.379.203-.784.3-1.184.3m19.73 30.37c-.75 0-1.493-.334-1.988-.976-3.068-3.97-6.02-8.06-8.776-12.159-.773-1.15-.467-2.709.683-3.486 1.15-.77 2.712-.466 3.486.685 2.693 4.006 5.58 8.007 8.58 11.89.85 1.096.649 2.675-.45 3.522-.457.354-.999.525-1.535.525m24.245 26.91c-.628 0-1.254-.232-1.741-.702-3.611-3.469-7.141-7.063-10.493-10.68-.943-1.016-.883-2.605.135-3.548 1.013-.941 2.605-.885 3.546.134 3.29 3.546 6.75 7.07 10.292 10.47 1 .964 1.031 2.553.072 3.553-.495.515-1.153.772-1.811.772m27.7 23.35c-.52 0-1.046-.16-1.496-.494-4.034-2.994-8-6.09-11.786-9.203-1.072-.88-1.225-2.463-.346-3.536.88-1.072 2.462-1.228 3.534-.344 3.724 3.06 7.622 6.104 11.591 9.046 1.113.827 1.348 2.4.521 3.514-.495.665-1.25 1.017-2.019 1.017M128.806 528c-.405 0-.813-.096-1.193-.3-5.393-2.914-9.796-5.334-13.08-7.192-1.207-.683-1.633-2.215-.95-3.422.687-1.212 2.22-1.632 3.423-.951 3.256 1.84 7.629 4.245 12.994 7.142 1.221.659 1.676 2.182 1.018 3.403-.455.843-1.32 1.32-2.212 1.32" transform="translate(-743 -3553) translate(743 3553)"/>
                <path fill="#0A4CFE" d="M535 185L461.096 140 443 158.553z" transform="translate(-743 -3553) translate(743 3553)"/>
                <path fill="#99D7FF" d="M461 196L462.057 161 535 185.521zM461 112L536 186 461.091 140.891z" transform="translate(-743 -3553) translate(743 3553)"/>
                <path fill="#0033BF" d="M444 159L463 161.021 462.847 166z" transform="translate(-743 -3553) translate(743 3553)"/>
            </g>
        </g>
    </g>
</svg>
