<svg xmlns="http://www.w3.org/2000/svg" xmlns:xlink="http://www.w3.org/1999/xlink" width="906" height="610" viewBox="0 0 906 610">
    <defs>
        <path id="ac3j2l1rza" d="M0.481 0.578L689.096 0.578 689.096 467.871 0.481 467.871z"/>
        <path id="qqftb0jekc" d="M0 609.355L905.433 609.355 905.433 0.62 0 0.62z"/>
        <path id="p67nihvcwe" d="M154.909.059c-7.715 0-13.972 5.34-13.972 11.93l-.001.748c0 2.682-.005 13.71-.025 52.165-.46 6.236-6.528 11.17-13.945 11.17H42.013c-7.718 0-13.971-5.34-13.971-11.93V11.99C28.042 5.4 21.787.06 14.07.06S.098 5.399.098 11.989v83.446c0 6.588 6.255 11.93 13.972 11.93h214.543c7.716 0 13.971-5.342 13.971-11.93V11.99c0-6.59-6.255-11.93-13.971-11.93h-73.704zm-13.973 12.35v.328l.001-.763c-.001-.001-.001.217-.001.435z"/>
        <path id="2anfx1dsuh" d="M0 0.622L491.642 0.622 491.642 472.236 0 472.236z"/>
        <linearGradient id="iqw2dkt6zf" x1="-2.136%" x2="104.463%" y1="45.83%" y2="54.356%">
            <stop offset="0%" stop-color="#F47938"/>
            <stop offset="100%" stop-color="#FFFB4D"/>
        </linearGradient>
    </defs>
    <g fill="none" fill-rule="evenodd">
        <g>
            <g>
                <g transform="translate(-761 -1535) translate(761 1535)">
                    <g transform="translate(74.074 141.484)">
                        <mask id="kab9scp8qb" fill="#fff">
                            <use xlink:href="#ac3j2l1rza"/>
                        </mask>
                        <path fill="#FFD6D6" d="M366.596.578S-57.732 8.158 7.249 203.456C72.232 398.75 544.353 483.54 608.84 465.503 673.325 447.461 836.05 26.356 366.596.578" mask="url(#kab9scp8qb)"/>
                    </g>
                    <path fill="#7796FE" d="M779.963 351.46H411.426c-3.162 0-5.725-2.562-5.725-5.722V97.953c0-3.158 2.563-5.72 5.725-5.72h368.537c3.16 0 5.725 2.562 5.725 5.72v247.785c0 3.16-2.565 5.722-5.725 5.722"/>
                    <path fill="#004D54" d="M779.963 117.067H411.426c-3.162 0-5.725-2.561-5.725-5.721V97.954c0-3.159 2.563-5.722 5.725-5.722h368.537c3.16 0 5.725 2.563 5.725 5.722v13.392c0 3.16-2.565 5.721-5.725 5.721"/>
                    <mask id="fp9m49iowd" fill="#fff">
                        <use xlink:href="#qqftb0jekc"/>
                    </mask>
                    <path fill="#A2B7FD" d="M440.669 288.723L534.806 288.723 534.806 142.062 440.669 142.062z" mask="url(#fp9m49iowd)"/>
                    <path fill="#698BFD" d="M561.16 150.307L761.278 150.307 761.278 142.062 561.16 142.062zM561.16 169.042L761.278 169.042 761.278 159.505 561.16 159.505z" mask="url(#fp9m49iowd)"/>
                    <path fill="#FFF" d="M419.916 112.776L672.536 112.776 672.536 99.187 419.916 99.187zM745.185 110.686c0 1.155-.937 2.091-2.093 2.091-1.155 0-2.092-.936-2.092-2.09 0-1.156.937-2.092 2.092-2.092 1.156 0 2.093.936 2.093 2.091M750.254 110.686c0 1.155-.937 2.091-2.092 2.091-1.156 0-2.092-.936-2.092-2.09 0-1.156.936-2.092 2.092-2.092 1.155 0 2.092.936 2.092 2.091M755.323 110.686c0 1.155-.936 2.091-2.092 2.091-1.155 0-2.092-.936-2.092-2.09 0-1.156.937-2.092 2.092-2.092 1.156 0 2.092.936 2.092 2.091" mask="url(#fp9m49iowd)"/>
                    <path fill="#121841" d="M662.54 104.017c0-1.504 1.162-2.728 2.59-2.728 1.426 0 2.588 1.224 2.588 2.728 0 1.504-1.162 2.728-2.589 2.728s-2.59-1.224-2.59-2.728m6.667 6.317l-2.01-3.466c.814-.656 1.342-1.688 1.342-2.85 0-1.983-1.526-3.594-3.409-3.594-1.883 0-3.409 1.61-3.409 3.593 0 1.984 1.526 3.593 3.41 3.593.467 0 .913-.1 1.32-.28l1.418 3.714c.017.037.036.079.056.116.217.372.68.49 1.032.264.356-.23.468-.718.25-1.09" mask="url(#fp9m49iowd)"/>
                    <path fill="#F57408" d="M682.913 112.062L704.263 112.062 704.263 99.189 682.913 99.189z" mask="url(#fp9m49iowd)"/>
                    <path fill="#E4EDFF" d="M577.413 340.22L753.231 340.22 753.231 182.868 577.413 182.868z" mask="url(#fp9m49iowd)"/>
                    <path fill="#FFF" d="M595.695 274.42L665.323 274.42 665.323 207.903 595.695 207.903zM680.625 340.22L750.254 340.22 750.254 284.942 680.625 284.942z" mask="url(#fp9m49iowd)"/>
                    <path fill="#F57408" d="M624.661 197.888L709.751 197.888 709.751 190.735 624.661 190.735z" mask="url(#fp9m49iowd)"/>
                    <path fill="#698BFD" d="M677.547 211.479L750.254 211.479 750.254 207.903 677.547 207.903zM677.547 217.678L750.254 217.678 750.254 214.102 677.547 214.102zM677.547 223.875L750.254 223.875 750.254 220.299 677.547 220.299zM677.547 230.074L750.254 230.074 750.254 226.498 677.547 226.498zM677.547 236.273L750.254 236.273 750.254 232.698 677.547 232.698zM677.547 242.472L750.254 242.472 750.254 238.896 677.547 238.896zM677.547 248.671L750.254 248.671 750.254 245.095 677.547 245.095zM677.547 254.869L750.254 254.869 750.254 251.294 677.547 251.294zM677.547 261.069L750.254 261.069 750.254 257.493 677.547 257.493zM677.547 267.267L750.254 267.267 750.254 263.69 677.547 263.69zM677.547 273.466L750.254 273.466 750.254 269.889 677.547 269.889z" mask="url(#fp9m49iowd)"/>
                    <path fill="#D5DFFE" d="M899.708 524.025H531.171c-3.162 0-5.723-2.563-5.723-5.724V270.52c0-3.16 2.561-5.72 5.723-5.72h368.537c3.162 0 5.725 2.56 5.725 5.72V518.3c0 3.16-2.563 5.724-5.725 5.724" mask="url(#fp9m49iowd)"/>
                    <path fill="#004D54" d="M899.708 289.633H531.171c-3.162 0-5.723-2.563-5.723-5.722v-13.392c0-3.158 2.561-5.722 5.723-5.722h368.537c3.162 0 5.725 2.564 5.725 5.722v13.392c0 3.159-2.563 5.722-5.725 5.722" mask="url(#fp9m49iowd)"/>
                    <path fill="#698BFD" d="M560.416 461.289L654.553 461.289 654.553 314.627 560.416 314.627zM680.905 322.871L881.023 322.871 881.023 314.626 680.905 314.626zM680.905 341.606L881.023 341.606 881.023 332.069 680.905 332.069z" mask="url(#fp9m49iowd)"/>
                    <path fill="#FFF" d="M539.662 285.342L792.283 285.342 792.283 271.753 539.662 271.753zM864.931 283.25c0 1.155-.937 2.09-2.092 2.09-1.157 0-2.092-.935-2.092-2.09 0-1.154.935-2.091 2.092-2.091 1.155 0 2.092.937 2.092 2.09M870 283.25c0 1.155-.937 2.09-2.093 2.09-1.155 0-2.092-.935-2.092-2.09 0-1.154.937-2.091 2.092-2.091 1.156 0 2.093.937 2.093 2.09M875.069 283.25c0 1.155-.937 2.09-2.092 2.09-1.156 0-2.093-.935-2.093-2.09 0-1.154.937-2.091 2.093-2.091 1.155 0 2.092.937 2.092 2.09" mask="url(#fp9m49iowd)"/>
                    <path fill="#121841" d="M782.286 276.582c0-1.503 1.162-2.727 2.59-2.727 1.427 0 2.587 1.224 2.587 2.727 0 1.504-1.16 2.728-2.588 2.728-1.427 0-2.589-1.224-2.589-2.728m6.667 6.318l-2.01-3.468c.813-.655 1.342-1.687 1.342-2.85 0-1.984-1.528-3.593-3.41-3.593-1.883 0-3.41 1.61-3.41 3.593 0 1.984 1.527 3.593 3.41 3.593.468 0 .912-.1 1.319-.28l1.42 3.714c.017.038.035.079.057.117.215.371.678.49 1.032.261.354-.228.466-.715.25-1.087" mask="url(#fp9m49iowd)"/>
                    <path fill="#F57408" d="M802.66 284.626L824.01 284.626 824.01 271.753 802.66 271.753z" mask="url(#fp9m49iowd)"/>
                    <path fill="#E4EDFF" d="M697.159 512.786L872.977 512.786 872.977 355.434 697.159 355.434z" mask="url(#fp9m49iowd)"/>
                    <path fill="#FFF" d="M715.44 446.986L785.069 446.986 785.069 380.468 715.44 380.468zM800.371 512.786L869.999 512.786 869.999 457.508 800.371 457.508z" mask="url(#fp9m49iowd)"/>
                    <path fill="#F57408" d="M744.407 370.454L829.497 370.454 829.497 363.301 744.407 363.301z" mask="url(#fp9m49iowd)"/>
                    <path fill="#698BFD" d="M797.293 384.045L869.999 384.045 869.999 380.468 797.293 380.468zM797.293 390.242L869.999 390.242 869.999 386.666 797.293 386.666zM797.293 396.441L869.999 396.441 869.999 392.865 797.293 392.865zM797.293 402.64L869.999 402.64 869.999 399.064 797.293 399.064zM797.293 408.838L869.999 408.838 869.999 405.261 797.293 405.261zM797.293 415.037L869.999 415.037 869.999 411.462 797.293 411.462zM797.293 421.236L869.999 421.236 869.999 417.659 797.293 417.659zM797.293 427.435L869.999 427.435 869.999 423.858 797.293 423.858zM797.293 433.632L869.999 433.632 869.999 430.057 797.293 430.057zM797.293 439.832L869.999 439.832 869.999 436.256 797.293 436.256zM797.293 446.031L869.999 446.031 869.999 442.455 797.293 442.455z" mask="url(#fp9m49iowd)"/>
                    <path fill="#2846A6" d="M495.527 571.384c0 9.927-74.409 17.975-166.197 17.975-91.79 0-166.198-8.048-166.198-17.975 0-9.927 74.408-17.975 166.198-17.975 91.788 0 166.197 8.048 166.197 17.975" mask="url(#fp9m49iowd)"/>
                    <path fill="#1F1A15" d="M355.755 572.76L362.349 572.76 388.604 459.748 379.047 459.245zM462.746 574.798L456.152 574.798 429.897 461.786 439.456 461.284zM286.277 562.601L279.684 562.601 253.427 449.588 262.986 449.087zM198.683 570.276L205.277 570.276 231.532 457.261 221.973 456.76z" mask="url(#fp9m49iowd)"/>
                    <path fill="#450000" d="M203.57 372.23v83.123c0 6.564 6.261 11.885 13.986 11.885h214.78c7.723 0 13.987-5.32 13.987-11.885V372.23c0-6.565-6.264-11.887-13.987-11.887h-214.78c-7.725 0-13.987 5.322-13.987 11.887" mask="url(#fp9m49iowd)"/>
                </g>
                <g transform="translate(-761 -1535) translate(761 1535) translate(204 360)">
                    <mask id="2ah06jqkhg" fill="#fff">
                        <use xlink:href="#p67nihvcwe"/>
                    </mask>
                    <path fill="url(#iqw2dkt6zf)" d="M154.909.059c-7.715 0-13.972 5.34-13.972 11.93l-.001.748c0 2.682-.005 13.71-.025 52.165-.46 6.236-6.528 11.17-13.945 11.17H42.013c-7.718 0-13.971-5.34-13.971-11.93V11.99C28.042 5.4 21.787.06 14.07.06S.098 5.399.098 11.989v83.446c0 6.588 6.255 11.93 13.972 11.93h214.543c7.716 0 13.971-5.342 13.971-11.93V11.99c0-6.59-6.255-11.93-13.971-11.93h-73.704zm-13.973 12.35v.328l.001-.763c-.001-.001-.001.217-.001.435z" mask="url(#2ah06jqkhg)"/>
                </g>
                <g>
                    <path fill="#FABF44" d="M344.46 373.072v.005-.005zM344.46 373.302v.002-.002zM344.433 425.218l.028-51.917v.002-.24.01-.228.003V372.474c0-6.568 6.26-11.894 13.982-11.894h73.763c7.723 0 13.983 5.326 13.983 11.894v83.178c0 6.569-6.26 11.893-13.983 11.893h-100.99l-.738-31.192c7.423 0 13.495-4.92 13.955-11.135" transform="translate(-761 -1535) translate(761 1535)"/>
                    <path fill="#F15A24" d="M390.02 467.545h42.186c7.723 0 13.983-5.324 13.983-11.893v-83.178c0-6.568-6.26-11.894-13.983-11.894h-42.185c-7.721 0-13.983 5.326-13.983 11.894v83.178c0 6.569 6.262 11.893 13.983 11.893" transform="translate(-761 -1535) translate(761 1535)"/>
                    <path fill="#0E1B29" d="M325.272 204.468s-22.61-3.859-30.518 11.764c-7.909 15.623-7.162 50.951 3.6 60.098 10.765 9.148 8.974 32.582 18.402 39.5 9.43 6.92 33.457 10.045 33.457-6.246 0 0-11.71 1.983-14.676-8.16 0 0 16.805 7.88 25.017-4.144 8.211-12.024-9.43-13.14-9.43-13.14s6.932 3.404-3.41 1.618c-10.34-1.785-3.59-4.366-3.59-13.113 0-8.744 6.393-2.564 4.566-18.632-1.823-16.069-15.712-50.098-23.418-49.545" transform="translate(-761 -1535) translate(761 1535)"/>
                    <path fill="#FC7575" d="M270.688 549.33l-2.193 15.314s-4.083 11.57-4.083 13.27c0 1.127 1.92 10.255 7.03 11.794 2.618.79 13.346-10.92 14.77-16.215 1.668-6.19-2.41-25.523-2.41-25.523l-13.114 1.36zM305.913 546.608s-2.911 22.46-2.911 25.862c0 3.403-.463 8.29 1.454 10.208 1.92 1.92 19.145-3.742 19.145-9.867 0-6.126-3.742-26.203-3.742-26.203h-13.946z" transform="translate(-761 -1535) translate(761 1535)"/>
                    <path fill="#FFDA88" d="M343.128 345.787c0-15.334-.636-65.216-.636-65.216s-9.064-6.145-27.21-6.145c-5.835 0-11.2-.998-17.009.06-12.254 2.23-23.397 7.475-23.397 7.475s3.76 47.06-2.118 79.189c-1.038 5.676 3.397 10.885 9.165 10.885h57.33c3.868 0 6.807-3.477 6.174-7.293-1.35-8.144-2.3-14.972-2.3-18.955" transform="translate(-761 -1535) translate(761 1535)"/>
                    <path fill="#464A7F" d="M278.555 371.04c-9.298 7.204-11.283 9.685-13.929 12.931-20.649 25.354-14.705 59.782-5.318 58.488 9.384-1.292 28.783-4.652 43.799-1.524 15.018 3.13 48.809 2.192 51.937-10.014 2.083-8.13-9.026-36.425-15.038-58.886l-61.451-.995z" transform="translate(-761 -1535) translate(761 1535)"/>
                    <path fill="#35385F" d="M310.026 402.751L303 413.784c-3.456 7.912-1.44 26.857-1.44 26.857l-30.873-1.565-1.468-29.1 40.806-7.225z" transform="translate(-761 -1535) translate(761 1535)"/>
                    <path fill="#6B6E98" d="M304.673 413.08s17.519-1.878 24.09 4.696c6.57 6.571-5.944 96.086-4.38 101.093 1.564 5.008 9.073 4.383 4.692 8.763-4.38 4.383-5.474 7.356-3.44 9.39 2.033 2.034 2.815 5.008.937 6.887-1.877 1.876-2.502 6.884-2.502 6.884H303.1s-1.556-12.832-1.556-15.023c0-2.191-2.502-8.449-2.502-8.449s7.808-4.074 4.058-7.826 0-9.388 0-17.527c0-8.138-11.567-87.324 1.573-88.888M251.581 412.831c6.063-6.064 15.86-6.822 25.56 0 9.699 6.822 6.256 23.723 6.256 39.059 0 15.336-1.003 53.208.593 57.902 1.598 4.696 6.604 9.391 4.726 14.4-1.876 5.007-2.817 3.962.415 7.197 3.235 3.234 1.463 5.633 1.463 9.075 0 3.444-1.565 14.086-1.565 14.086h-20.022s-.94-19.094-5.944-26.604c-5.006-7.513-1.253-23.786-1.253-26.29 0-2.504-6.258-5.635-6.258-16.59 0-10.953-7.265-68.94-3.97-72.235" transform="translate(-761 -1535) translate(761 1535)"/>
                    <path fill="#FD5E5A" d="M275.843 281.96s-3.561 6.231-8.567 20.315c-5.006 14.085 3.413 69.9 3.413 79.29 0 9.388 11.77 21.186 11.77 21.186l10.01-11.268-6.568-40.687-10.058-68.836zM342.493 280.571s14.43 3.56 18.834 23.59c4.403 20.03 7.981 66.98 6.605 72.613-1.375 5.634-37.668 23.054-37.668 23.054l-3.065-6.154s27.522-23.786 27.522-27.228c0-3.444-11.779-46.53-11.779-46.53l-.45-39.345z" transform="translate(-761 -1535) translate(761 1535)"/>
                    <path fill="#241145" d="M231.462 352.047L239.596 409.801 340.964 406.196 338.958 348.297z" transform="translate(-761 -1535) translate(761 1535)"/>
                    <path fill="#ED1E79" d="M285.654 574.98c-9.45 5.985-16.478 5.356-21.235 3.073.125 1.585 2.083 10.166 7.023 11.655 2.394.723 11.569-9.006 14.212-14.728M323.6 572.81c0-1.36-.184-3.41-.472-5.778-5.452 4.905-12.732 8.135-19.773.934-.216 2.119-.354 3.765-.354 4.504 0 3.403-.463 8.29 1.456 10.208 1.917 1.92 19.144-3.742 19.144-9.867" transform="translate(-761 -1535) translate(761 1535)"/>
                    <path fill="#FC7575" d="M325.558 251.223s-.787 1.73-1.981 4.44c-4.137 9.39-1.506 23.792-1.297 26.297.418 5.03-2.27 15.32-2.27 15.32s-19.658-13.76-20.77-22.794l10.66-32.664 15.658 9.401z" transform="translate(-761 -1535) translate(761 1535)"/>
                    <path fill="#FD5E5A" d="M309.9 241.822l15.658 9.401s-.788 1.736-1.98 4.439c-5.512-1.52-13.926-4.299-15.753-7.487l2.076-6.353z" transform="translate(-761 -1535) translate(761 1535)"/>
                    <path fill="#0E1B29" d="M313.688 215.181l23.647 13.055s4.907.112 4.907-5.355c0-5.469-6.023-10.824-12.158-13.949-6.134-3.123-13.83-4.473-13.83-4.473l-2.566 10.722z" transform="translate(-761 -1535) translate(761 1535)"/>
                    <path fill="#FC7575" d="M322.276 209.267s9.147 1.562 11.6 5.915c2.454 4.35 3.124 14.729 5.577 17.183 2.455 2.455 4.593 2.995 4.593 2.995s.65 1.134-1.804 2.36c-2.453 1.228-.595 2.569.929 2.569 1.525 0 .243 2.9-.929 3.236 0 0 1.506.445 1.226 1.896-.278 1.45-1.002 1.73-1.002 1.73s-.075 1.897.705 3.682c.781 1.784-1.113 7.085-13.086 4.742 0 0-17.794-4.184-18.854-9.205-1.056-5.023-8.975-23.273-2.228-30.021 6.745-6.75 13.273-7.082 13.273-7.082" transform="translate(-761 -1535) translate(761 1535)"/>
                    <path fill="#1B3753" d="M314.021 204.182s2.23-2.904 13.385.278c11.154 3.18 14.38 15.802 14.38 15.802s-7.185-4.86-11.702-4.86-14.737-1.715-16.397-3.373c-1.659-1.66.334-7.847.334-7.847" transform="translate(-761 -1535) translate(761 1535)"/>
                    <path fill="#1B3753" d="M316.333 203.166c1.56 0 10.571 11.234 7.895 19.603-2.677 8.368-9.034 4.63-13.051 6.862-4.017 2.232.778 12.554.054 16.739-.724 4.183-11.991 28.116-11.991 28.116s-9.479-50.596-3.732-59.97c5.746-9.373 20.825-11.35 20.825-11.35" transform="translate(-761 -1535) translate(761 1535)"/>
                    <path fill="#FD5E5A" d="M327.339 238.084c0 1.25 2.096 2.262 4.681 2.262 2.587 0 4.682-1.012 4.682-2.262s-2.095-2.264-4.682-2.264c-2.585 0-4.681 1.015-4.681 2.264" transform="translate(-761 -1535) translate(761 1535)"/>
                    <path fill="#1B3753" d="M338.593 228.236s-1.539 3.09-7.799 2.946l7.799-2.946zM336.703 226.724s-2.324-1.39-4.128-1.39c-1.803 0-3.467.732-3.467 1.39 0 0 1.977-.936 3.537-.694 1.56.243 2.289 1.443 2.914 1.443.624 0 1.144-.749 1.144-.749M310.719 238s8.674 20.108-8.745 42.57c-17.419 22.467-41.055 13.373-44.236 4.28-3.182-9.095 7.949-12.204 7.949-12.204s-2.123 10.289 3.533 9.801c5.657-.487 7.607-1.82 5.335-12.896-2.273-11.075 5.945-6.635 10.467-13.888 4.52-7.252 0-12.788 0-21.357 0-8.568 10.486-19.79 10.486-19.79L310.718 238z" transform="translate(-761 -1535) translate(761 1535)"/>
                    <path fill="#FC7575" d="M312.399 230.636s-3.229-7.031-4.735-5.523c-1.505 1.506-2.257 11.882 3.055 12.888 5.312 1.003 1.68-7.365 1.68-7.365" transform="translate(-761 -1535) translate(761 1535)"/>
                    <path fill="#FD5E5A" d="M312.166 231.493s-1.664-3.833-2.567-2.929c-.9.902.07 6.939 1.283 6.939 1.215 0 1.578-2.08 1.284-4.01" transform="translate(-761 -1535) translate(761 1535)"/>
                    <path fill="#1B3753" d="M336.939 231.415c0 .718-.33 1.3-.739 1.3-.408 0-.739-.582-.739-1.3 0-.719.331-1.302.74-1.302.407 0 .738.583.738 1.302" transform="translate(-761 -1535) translate(761 1535)"/>
                    <path fill="#5CA9FF" d="M174.105 278.182h73.225c3.325 0 6.023 4.004 6.023 8.94v20.795c0 4.937-2.698 8.939-6.023 8.939h-3.316l9.339 28.31-29.213-28.31h-50.035c-3.325 0-6.023-4.002-6.023-8.94v-20.795c0-4.935 2.698-8.939 6.023-8.939" transform="translate(-761 -1535) translate(761 1535)"/>
                    <path fill="#99D7FF" d="M516.964 64.121c-.52 0-1.048-.145-1.517-.448-2.301-1.483-4.68-2.963-7.067-4.402-1.328-.801-1.756-2.523-.957-3.852.798-1.33 2.522-1.758 3.85-.958 2.437 1.467 4.866 2.978 7.213 4.493 1.303.84 1.679 2.578.84 3.88-.539.834-1.44 1.287-2.362 1.287" transform="translate(-761 -1535) translate(761 1535)"/>
                    <g transform="translate(-761 -1535) translate(761 1535)">
                        <mask id="po1oujfzei" fill="#fff">
                            <use xlink:href="#2anfx1dsuh"/>
                        </mask>
                        <path fill="#99D7FF" d="M292.226 6.416h-.065c-5.37-.119-10.625-.18-15.62-.18h-.893c-1.549 0-2.806-1.257-2.806-2.806 0-1.551 1.257-2.809 2.806-2.809h.893c5.036 0 10.335.061 15.745.18 1.549.034 2.777 1.32 2.744 2.87-.035 1.528-1.284 2.745-2.804 2.745m-57.073 1.358c-1.448 0-2.678-1.113-2.793-2.581-.125-1.548 1.029-2.9 2.572-3.023 5.37-.43 10.971-.775 16.65-1.025 1.52-.084 2.859 1.132 2.928 2.683.067 1.548-1.132 2.858-2.682 2.927-5.612.244-11.146.586-16.447 1.01-.077.006-.154.01-.228.01m97.551.643c-.077 0-.153-.005-.229-.01-5.4-.435-10.943-.807-16.475-1.108-1.549-.086-2.734-1.406-2.65-2.957.084-1.547 1.37-2.696 2.956-2.65 5.578.304 11.17.68 16.619 1.12 1.545.123 2.697 1.474 2.572 3.02-.117 1.47-1.346 2.585-2.793 2.585m40.25 4.657c-.143 0-.286-.012-.43-.035-5.367-.821-10.865-1.578-16.339-2.243-1.538-.186-2.633-1.586-2.447-3.125.19-1.54 1.597-2.617 3.127-2.448 5.53.675 11.085 1.436 16.51 2.27 1.532.234 2.584 1.666 2.349 3.2-.213 1.387-1.41 2.381-2.77 2.381M195 13.154c-1.313 0-2.487-.93-2.75-2.27-.296-1.521.696-2.995 2.218-3.293 5.337-1.042 10.885-1.977 16.49-2.778 1.52-.213 2.953.849 3.174 2.383.217 1.535-.848 2.959-2.381 3.176-5.51.785-10.963 1.704-16.208 2.731-.183.035-.362.051-.543.051m217.7 7.732c-.219 0-.44-.026-.663-.079-5.236-1.27-10.647-2.477-16.077-3.588-1.52-.31-2.5-1.792-2.19-3.31.31-1.52 1.791-2.502 3.31-2.189 5.5 1.121 10.976 2.344 16.28 3.63 1.508.366 2.432 1.883 2.067 3.39-.313 1.285-1.46 2.146-2.727 2.146m-256.758 2.885c-1.152 0-2.232-.715-2.642-1.859-.523-1.462.236-3.067 1.692-3.592 5.15-1.849 10.52-3.57 15.96-5.122 1.488-.423 3.042.44 3.466 1.932.425 1.49-.439 3.045-1.93 3.467-5.317 1.517-10.566 3.203-15.599 5.009-.314.11-.633.165-.947.165m295.591 8.621c-.31 0-.628-.051-.938-.16-5.104-1.812-10.359-3.544-15.623-5.152-1.481-.455-2.317-2.022-1.863-3.505.453-1.484 2.02-2.321 3.504-1.865 5.34 1.633 10.676 3.39 15.857 5.23 1.46.518 2.224 2.123 1.71 3.584-.412 1.15-1.493 1.868-2.647 1.868m-332.259 8.457c-.96 0-1.896-.494-2.42-1.385-.785-1.333-.341-3.054.995-3.842 4.76-2.804 9.74-5.47 14.802-7.928 1.397-.674 3.074-.094 3.752 1.299.675 1.397.094 3.076-1.3 3.751-4.928 2.392-9.775 4.988-14.409 7.718-.446.263-.936.387-1.42.387m369.56 7.307c-.421 0-.846-.092-1.247-.293-4.83-2.403-9.843-4.736-14.895-6.934-1.42-.619-2.071-2.271-1.454-3.692.618-1.424 2.272-2.074 3.69-1.457 5.145 2.236 10.243 4.611 15.157 7.057 1.389.692 1.953 2.376 1.262 3.762-.489.988-1.483 1.557-2.513 1.557M86.69 64.806c-.764 0-1.526-.31-2.08-.921-1.04-1.148-.953-2.923.195-3.965 4.14-3.758 8.485-7.378 12.909-10.76 1.234-.94 2.991-.706 3.934.526.941 1.231.706 2.994-.526 3.934-4.3 3.288-8.521 6.806-12.547 10.459-.538.485-1.21.727-1.885.727M59.09 94.436c-.612 0-1.23-.2-1.744-.61-1.213-.966-1.414-2.732-.45-3.946 3.466-4.357 7.113-8.657 10.842-12.778 1.04-1.154 2.817-1.234 3.966-.197 1.148 1.04 1.236 2.816.196 3.967-3.65 4.033-7.22 8.24-10.611 12.503-.555.698-1.373 1.06-2.199 1.06m-22.708 33.528c-.472 0-.949-.119-1.388-.37-1.347-.768-1.816-2.482-1.047-3.83 2.75-4.822 5.695-9.627 8.755-14.286.852-1.295 2.595-1.653 3.887-.805 1.293.851 1.655 2.593.804 3.89-2.996 4.557-5.88 9.262-8.572 13.985-.516.907-1.464 1.416-2.439 1.416m-17.282 36.615c-.332 0-.67-.057-.999-.18-1.448-.552-2.175-2.174-1.624-3.622 1.97-5.191 4.142-10.393 6.451-15.468.643-1.41 2.304-2.032 3.72-1.392 1.41.644 2.03 2.307 1.388 3.721-2.26 4.965-4.384 10.057-6.313 15.134-.426 1.12-1.492 1.807-2.623 1.807M7.755 203.45c-.19 0-.379-.02-.571-.059-1.517-.314-2.493-1.8-2.18-3.317 1.122-5.418 2.445-10.9 3.937-16.293.413-1.498 1.959-2.369 3.451-1.957 1.494.413 2.372 1.959 1.957 3.452-1.458 5.275-2.753 10.636-3.85 15.936-.274 1.326-1.44 2.238-2.744 2.238m-4.947 40.179c-.036 0-.074 0-.11-.002-1.55-.061-2.756-1.366-2.696-2.916.218-5.54.634-11.163 1.235-16.722.166-1.54 1.551-2.654 3.092-2.49 1.542.169 2.654 1.553 2.488 3.094-.588 5.431-.994 10.93-1.206 16.337-.061 1.512-1.304 2.699-2.803 2.699m1.814 40.448c-1.388 0-2.594-1.03-2.778-2.442-.166-1.272-.323-2.543-.47-3.824-.49-4.259-.87-8.592-1.126-12.878-.094-1.546 1.084-2.876 2.631-2.97 1.53-.084 2.877 1.086 2.97 2.632.25 4.185.622 8.416 1.101 12.579.142 1.25.296 2.49.458 3.729.2 1.54-.88 2.948-2.416 3.149-.125.018-.247.025-.37.025m8.865 39.493c-1.185 0-2.288-.756-2.671-1.944-1.708-5.306-3.237-10.744-4.547-16.168-.364-1.506.563-3.024 2.068-3.386 1.511-.36 3.023.563 3.387 2.069 1.277 5.286 2.77 10.59 4.433 15.763.476 1.475-.335 3.055-1.81 3.531-.286.092-.574.135-.86.135m15.838 37.254c-1 0-1.97-.538-2.474-1.481-2.637-4.924-5.12-9.995-7.378-15.072-.63-1.417.005-3.078 1.422-3.707 1.414-.634 3.076.005 3.704 1.422 2.205 4.954 4.626 9.9 7.198 14.705.732 1.37.217 3.07-1.148 3.8-.422.228-.876.333-1.324.333m22.048 33.943c-.839 0-1.67-.373-2.221-1.09-3.43-4.437-6.73-9.008-9.806-13.588-.866-1.286-.524-3.03.761-3.897 1.286-.861 3.03-.522 3.896.764 3.01 4.478 6.235 8.949 9.587 13.288.95 1.227.724 2.992-.504 3.938-.51.394-1.115.585-1.713.585m27.089 30.073c-.701 0-1.4-.258-1.946-.782-4.035-3.877-7.979-7.894-11.724-11.935-1.054-1.138-.986-2.912.151-3.966 1.132-1.054 2.911-.991 3.963.15 3.674 3.96 7.541 7.9 11.5 11.701 1.116 1.075 1.151 2.852.08 3.97-.552.574-1.289.862-2.024.862m30.95 26.096c-.58 0-1.167-.18-1.67-.553-4.506-3.345-8.94-6.804-13.17-10.284-1.198-.984-1.37-2.754-.387-3.95.984-1.2 2.752-1.374 3.95-.388 4.16 3.421 8.517 6.824 12.95 10.111 1.245.926 1.506 2.684.583 3.928-.551.741-1.397 1.136-2.256 1.136m34.512 21.3c-.451 0-.909-.106-1.332-.335-6.027-3.256-10.944-5.96-14.616-8.037-1.35-.764-1.823-2.476-1.061-3.824.767-1.353 2.48-1.822 3.824-1.062 3.64 2.058 8.524 4.745 14.52 7.981 1.364.736 1.874 2.44 1.136 3.805-.506.94-1.474 1.473-2.471 1.473" mask="url(#po1oujfzei)"/>
                    </g>
                    <path fill="#0A4CFE" d="M598.478 88.476L515.798 38.371 495.554 59.028z" transform="translate(-761 -1535) translate(761 1535)"/>
                    <path fill="#99D7FF" d="M515.785 100.084L516.967 61.312 598.478 88.475z" transform="translate(-761 -1535) translate(761 1535)"/>
                    <path fill="#99D7FF" d="M515.698 6.279L598.479 88.476 515.799 38.371z" transform="translate(-761 -1535) translate(761 1535)"/>
                    <path fill="#0033BF" d="M495.554 59.028L516.967 61.313 516.796 66.943z" transform="translate(-761 -1535) translate(761 1535)"/>
                </g>
            </g>
        </g>
    </g>
</svg>
