<svg xmlns="http://www.w3.org/2000/svg" xmlns:xlink="http://www.w3.org/1999/xlink" width="17" height="12" viewBox="0 0 17 12">
    <defs>
        <path id="v2jnmbdj0a" d="M22.45 24.42c1.52 0 2.756-1.237 2.756-2.757s-1.236-2.756-2.756-2.756c-1.52 0-2.756 1.236-2.756 2.756 0 1.52 1.236 2.756 2.756 2.756zm0-3.938c.654 0 1.181.527 1.181 1.181s-.527 1.181-1.18 1.181c-.654 0-1.182-.527-1.182-1.181s.528-1.181 1.181-1.181zm0 5.315c-1.843 0-5.512.922-5.512 2.757v.59c0 .433.354.788.787.788h9.45c.433 0 .788-.355.788-.788v-.59c0-1.835-3.67-2.757-5.513-2.757zm-3.67 2.56c.662-.457 2.26-.985 3.67-.985 1.41 0 3.008.528 3.67.985h-7.34zm9.214-2.512c.914.661 1.544 1.543 1.544 2.709v1.378H31.9c.433 0 .788-.355.788-.788v-.59c0-1.591-2.757-2.497-4.694-2.71zm-.819-1.426c1.52 0 2.756-1.236 2.756-2.756 0-1.52-1.236-2.756-2.756-2.756-.425 0-.819.102-1.181.275.496.701.787 1.56.787 2.481 0 .921-.29 1.78-.787 2.48.362.174.756.276 1.181.276z"/>
    </defs>
    <g fill="none" fill-rule="evenodd">
        <g>
            <g>
                <g>
                    <g transform="translate(-913 -1345) translate(306 1327) translate(67) translate(524)">
                        <use fill="#49A652" fill-rule="nonzero" xlink:href="#v2jnmbdj0a"/>
                    </g>
                </g>
            </g>
        </g>
    </g>
</svg>
