<svg xmlns="http://www.w3.org/2000/svg" xmlns:xlink="http://www.w3.org/1999/xlink" width="16" height="10" viewBox="0 0 16 10">
    <defs>
        <path id="ka9kt6dira" d="M27.72 19.58c-.132-.132-.31-.206-.496-.206s-.364.074-.495.206l-3.963 3.963.99.99 3.964-3.97c.267-.266.267-.716 0-.983zm2.979-.007l-6.942 6.942-2.446-2.438c-.13-.132-.31-.206-.495-.206-.186 0-.364.074-.495.206-.274.274-.274.717 0 .99l2.937 2.938c.274.274.716.274.99 0l7.442-7.434c.274-.274.274-.717 0-.991h-.007c-.267-.281-.71-.281-.984-.007zM16.35 25.075l2.937 2.937c.274.274.716.274.99 0l.492-.492-3.429-3.443c-.13-.132-.31-.206-.495-.206-.186 0-.364.074-.495.206-.274.274-.274.724 0 .998z"/>
    </defs>
    <g fill="none" fill-rule="evenodd">
        <g>
            <g>
                <g>
                    <g transform="translate(-633 -1346) translate(306 1327) translate(67) translate(244)">
                        <use fill="#FD5E5E" fill-rule="nonzero" xlink:href="#ka9kt6dira"/>
                    </g>
                </g>
            </g>
        </g>
    </g>
</svg>
