<svg xmlns="http://www.w3.org/2000/svg" xmlns:xlink="http://www.w3.org/1999/xlink" width="16" height="15" viewBox="0 0 16 15">
    <defs>
        <path id="z5lkkzcnma" d="M25.45 19.15v-1.575H22.3v1.575h3.15zm-7.875 2.362V28.6c0 .433.354.787.788.787h11.024c.434 0 .788-.354.788-.787v-7.088c0-.433-.354-.787-.788-.787H18.364c-.434 0-.788.354-.788.787zm12.6-2.362c.874 0 1.575.7 1.575 1.575v8.662c0 .875-.7 1.575-1.575 1.575h-12.6c-.874 0-1.575-.7-1.575-1.575l.008-8.662c0-.874.693-1.575 1.567-1.575h3.15v-1.575c0-.874.7-1.575 1.575-1.575h3.15c.874 0 1.575.7 1.575 1.575v1.575h3.15z"/>
    </defs>
    <g fill="none" fill-rule="evenodd">
        <g>
            <g>
                <g transform="translate(-389 -3310) translate(306 3294) translate(67)">
                    <use fill="#FFF" fill-rule="nonzero" xlink:href="#z5lkkzcnma"/>
                </g>
            </g>
        </g>
    </g>
</svg>
