
<svg version="1.1" id="Layer_1" xmlns="http://www.w3.org/2000/svg" xmlns:xlink="http://www.w3.org/1999/xlink" x="0px" y="0px"
	 viewBox="0 0 100 100" style="enable-background:new 0 0 100 100;" xml:space="preserve">
<path d="M26,5C14.4,5,5,14.4,5,26c0,11.6,9.4,21,21,21s21-9.4,21-21C47,14.4,37.6,5,26,5z M26,43c-9.4,0-17-7.6-17-17S16.6,9,26,9
	s17,7.6,17,17S35.4,43,26,43z M74,53c-11.6,0-21,9.4-21,21c0,11.6,9.4,21,21,21s21-9.4,21-21C95,62.4,85.6,53,74,53z M74,91
	c-9.4,0-17-7.6-17-17s7.6-17,17-17s17,7.6,17,17S83.4,91,74,91z M27,19c-1.9,0-3.6,0.8-4.9,2H26c1.1,0,2,0.9,2,2c0,1.1-0.9,2-2,2
	h-5.9C20,25.3,20,25.7,20,26c0,0.3,0,0.7,0.1,1H26c1.1,0,2,0.9,2,2c0,1.1-0.9,2-2,2h-3.9c1.3,1.2,3,2,4.9,2c0.8,0,1.6-0.1,2.3-0.4
	c1-0.4,2.2,0.2,2.6,1.2c0.4,1-0.2,2.2-1.2,2.5C29.5,36.8,28.2,37,27,37c-4.7,0-8.8-3-10.4-7.3C16.2,28.5,16,27.2,16,26
	s0.2-2.5,0.6-3.7C18.2,18,22.3,15,27,15c1.2,0,2.5,0.2,3.7,0.6c1,0.4,1.6,1.5,1.2,2.5c-0.4,1-1.5,1.6-2.6,1.2
	C28.6,19.1,27.8,19,27,19z M81,78c0,3-2.2,5.4-5,5.9V85c0,1.1-0.9,2-2,2s-2-0.9-2-2v-1h-1c-1.1,0-2-0.9-2-2c0-1.1,0.9-2,2-2h4
	c1.1,0,2-0.9,2-2c0-1.1-0.9-2-2-2h-2c-3.3,0-6-2.7-6-6c0-3,2.2-5.4,5-5.9V63c0-1.1,0.9-2,2-2s2,0.9,2,2v1h1c1.1,0,2,0.9,2,2
	c0,1.1-0.9,2-2,2h-4c-1.1,0-2,0.9-2,2c0,1.1,0.9,2,2,2h2C78.3,72,81,74.7,81,78z M53.6,21.4c-0.8-0.8-0.8-2,0-2.8l6-6
	c0.8-0.8,2-0.8,2.8,0c0.8,0.8,0.8,2,0,2.8L59.8,18H77c3.3,0,6,2.7,6,6v21c0,1.1-0.9,2-2,2s-2-0.9-2-2V24c0-1.1-0.9-2-2-2H59.8
	l2.6,2.6c0.8,0.8,0.8,2,0,2.8C62,27.8,61.5,28,61,28s-1-0.2-1.4-0.6L53.6,21.4z M46.4,78.6c0.8,0.8,0.8,2,0,2.8l-6,6
	C40,87.8,39.5,88,39,88s-1-0.2-1.4-0.6c-0.8-0.8-0.8-2,0-2.8l2.6-2.6H23c-3.3,0-6-2.7-6-6V55c0-1.1,0.9-2,2-2s2,0.9,2,2v21
	c0,1.1,0.9,2,2,2h17.2l-2.6-2.6c-0.8-0.8-0.8-2,0-2.8c0.8-0.8,2-0.8,2.8,0L46.4,78.6z"/>
</svg>
