<svg xmlns="http://www.w3.org/2000/svg" width="85" height="30" viewBox="0 0 85 30">
    <g fill="none" fill-rule="evenodd">
        <g fill="#000" fill-rule="nonzero">
            <g>
                <path d="M9.376 29.988c-2.533-.1-4.605-.786-6.225-2.06-.309-.244-1.046-.974-1.293-1.282-.657-.818-1.104-1.615-1.402-2.498-.916-2.72-.445-6.288 1.35-10.204C3.342 10.59 5.713 7.265 9.85 2.66 10.459 1.982 12.274 0 12.285 0c.005 0-.094.17-.219.376C10.991 2.16 10.07 4.262 9.57 6.081c-.805 2.919-.708 5.424.285 7.367.684 1.338 1.858 2.497 3.178 3.138 2.311 1.121 5.695 1.214 9.827.271.285-.065 14.381-3.771 31.327-8.235C71.13 4.157 84.998.507 85 .51c.005.004-39.369 16.689-59.808 25.345-3.237 1.37-4.103 1.716-5.625 2.245-3.89 1.353-7.374 1.999-10.19 1.888z" transform="translate(-44 -37) translate(44 37)"/>
            </g>
        </g>
    </g>
</svg>
